<svg width="72" height="72" viewBox="0 0 72 72" fill="none" xmlns="http://www.w3.org/2000/svg">
<path d="M66.5 40.6667H41.0834V66.0833C41.0834 68.8792 38.7959 71.1667 36 71.1667C33.2042 71.1667 30.9167 68.8792 30.9167 66.0833V40.6667H5.50002C2.70419 40.6667 0.416687 38.3792 0.416687 35.5833C0.416687 32.7875 2.70419 30.5 5.50002 30.5H30.9167V5.08333C30.9167 2.2875 33.2042 0 36 0C38.7959 0 41.0834 2.2875 41.0834 5.08333V30.5H66.5C69.2958 30.5 71.5833 32.7875 71.5833 35.5833C71.5833 38.3792 69.2958 40.6667 66.5 40.6667Z" fill="#888888"/>
</svg>
