<svg width="32" height="32" viewBox="0 0 32 32" fill="none" xmlns="http://www.w3.org/2000/svg">
<path d="M14.5138 0.056551C10.1049 0.538286 6.08345 2.70609 3.49674 5.99446C2.56469 7.17785 2.24004 7.691 1.53838 9.15715C-0.189579 12.7702 -0.461863 16.6555 0.721528 20.7293C1.24515 22.5305 2.56469 25.002 3.45485 25.8503C3.63288 26.0283 3.7795 26.2273 3.7795 26.3006C3.7795 26.4577 5.13045 27.8401 5.87399 28.437C9.91638 31.7044 15.4249 32.825 20.3784 31.3798C23.0279 30.6048 25.5413 29.0968 27.374 27.1908C27.7615 26.7928 28.0757 26.4158 28.0757 26.3635C28.0757 26.3111 28.3165 26.0179 28.5993 25.7037C30.0026 24.1852 31.3012 21.2424 31.8039 18.4672C32.0343 17.1372 32.0343 14.8647 31.7934 13.5032C30.8823 8.27746 27.7615 4.00468 23.185 1.73215C22.0226 1.15616 20.902 0.737263 19.9071 0.496395C18.0744 0.0774956 15.9276 -0.100536 14.5138 0.056551ZM18.1792 0.789625C24.9444 1.73215 30.3482 7.20926 31.2279 14.0269C31.3955 15.3359 31.2907 17.9331 31.008 19.2422C29.9398 24.2794 26.2535 28.5522 21.4466 30.3221C19.2788 31.118 16.9329 31.4426 14.629 31.2436C11.9271 31.0237 9.59173 30.1964 7.30873 28.6674C6.55471 28.1543 4.90005 26.7509 4.75344 26.4996C4.71155 26.4158 4.5021 26.1645 4.30312 25.9446C3.32918 24.8868 2.36571 23.295 1.73736 21.7556C-0.399028 16.5088 0.595859 10.351 4.22981 6.17249C7.36109 2.58042 10.618 0.957186 15.1945 0.6849C16.5036 0.611593 17.0481 0.632538 18.1792 0.789625Z" fill="#3B5998"/>
<path d="M14.5768 6.94714C14.3255 7.19848 14.3046 7.36604 14.4931 7.62785C14.5978 7.77447 14.8701 7.8373 15.6241 7.91061C17.6872 8.12006 19.2685 8.76935 20.808 10.0365C22.693 11.5969 23.845 13.859 24.0545 16.3724C24.0963 16.896 24.1906 17.294 24.2744 17.3882C24.5152 17.6186 24.9132 17.5662 25.1017 17.273C25.2588 17.0217 25.2588 16.917 25.1017 15.7755C24.997 15.1052 24.8085 14.1941 24.6619 13.7647C23.3737 9.92133 19.7712 7.13564 15.645 6.80052C14.8701 6.73769 14.7758 6.74816 14.5768 6.94714Z" fill="#3B5998"/>
<path d="M8.34531 9.49228C7.39231 10.4662 6.99436 11.1679 6.81632 12.2151C6.56498 13.6708 7.27711 15.7025 8.71185 17.6504C9.50776 18.729 11.5918 21.0749 12.1678 21.5356C12.3982 21.7242 12.8799 22.1326 13.236 22.4363C14.0528 23.1379 15.3828 24.0281 16.1892 24.4261C17.3202 24.9916 18.2209 25.201 19.2576 25.1591C20.5248 25.1172 21.3207 24.7193 22.5041 23.5568C23.3314 22.74 23.3733 22.6771 23.3419 22.2897C23.3105 21.8812 23.3105 21.8812 21.6873 20.9073C20.7971 20.3732 19.9279 19.9019 19.7499 19.8496C19.3205 19.7344 19.0273 19.86 18.3884 20.4465C17.7915 20.9911 17.0689 21.389 16.5139 21.4833C15.7179 21.609 14.6916 20.8549 12.2306 18.3311C11.1205 17.1896 10.754 16.6869 10.5864 16.0795C10.377 15.3045 10.6283 14.6657 11.5708 13.5032C12.4191 12.4769 12.4086 12.4665 10.8797 9.9426L10.1152 8.6859L9.66484 8.65448C9.21453 8.62306 9.18311 8.63354 8.34531 9.49228Z" fill="#3B5998"/>
<path d="M14.7966 9.24133C14.4719 9.29369 14.3044 9.63929 14.451 9.95346C14.5662 10.2153 14.5871 10.2257 15.8752 10.4143C18.3886 10.7913 20.2527 12.2679 21.1953 14.6137C21.3419 14.9803 21.5199 15.7133 21.5827 16.2265C21.7294 17.3575 21.7817 17.4727 22.1483 17.5146C22.6823 17.5774 22.7661 17.3889 22.7033 16.3312C22.63 15.2525 22.3158 14.2053 21.7398 13.179C21.2581 12.3307 19.7501 10.8122 18.8494 10.2781C17.687 9.5974 15.76 9.10519 14.7966 9.24133Z" fill="#3B5998"/>
<path d="M14.5246 11.8378C14.1057 12.2462 14.4513 12.6546 15.2996 12.7698C16.2316 12.8955 17.5826 13.5029 18.0748 14.0265C18.5251 14.4978 19.0906 15.8173 19.1639 16.5504C19.2477 17.2939 19.3943 17.5348 19.7923 17.5348C20.2007 17.5348 20.3264 17.3463 20.3264 16.7389C20.3264 15.2204 19.2477 13.3982 17.7921 12.4661C16.7239 11.7854 14.9226 11.4398 14.5246 11.8378Z" fill="#3B5998"/>
</svg>
