<svg width="66" height="65" viewBox="0 0 66 65" fill="none" xmlns="http://www.w3.org/2000/svg">
<path d="M14.8987 1.01986C7.80253 2.54491 3.07177 5.4705 1.20437 9.51654C0.550781 10.9171 0.550781 11.2594 0.550781 27.1324V43.3165L1.35999 44.8727C2.76054 47.4871 5.68614 50.0392 8.92297 51.3775C10.4169 51.9999 11.1016 51.9999 11.5996 51.3775C12.4088 50.4438 11.6307 49.3856 9.57656 48.5764C7.27343 47.6427 4.5657 45.3395 3.78761 43.6589C3.25851 42.4762 3.19627 41.3557 3.19627 30.6182C3.19627 24.1756 3.28964 18.8847 3.38301 18.8847C3.47638 18.8847 4.09885 19.3204 4.75244 19.8184C7.42905 21.9348 12.8134 23.8644 17.8243 24.4869C19.3804 24.6736 28.3751 24.7981 39.8596 24.7981C60.6811 24.7981 60.7123 24.7981 61.7704 26.3854C63.0154 28.2839 62.7041 30.7116 61.0546 32.1121L60.0898 32.8902H38.5524C19.5672 32.8902 16.9528 32.9524 16.3303 33.3882L15.6456 33.855V48.9187C15.6456 62.1773 15.7079 64.0136 16.1436 64.4493C16.5793 64.885 19.0069 64.9473 38.1789 64.9473H59.7163L61.3658 64.1381C63.3577 63.1421 64.6338 61.4614 65.1006 59.3139C65.5675 57.1664 65.5675 29.7467 65.1006 27.5992C64.6649 25.5762 63.171 23.5843 61.397 22.6817L60.0275 21.997H41.0112C17.1395 21.997 14.0894 21.748 9.45206 19.3515C6.09074 17.6086 5.00142 16.6749 4.0366 14.7764C3.25851 13.3136 3.16514 12.8156 3.35188 11.6952C3.53862 10.5436 3.91211 10.0145 5.65501 8.30273C7.39792 6.59094 8.17601 6.09297 10.3858 5.25264C14.743 3.6031 16.8594 3.22962 21.8703 3.22962C26.9123 3.22962 29.4644 3.66535 33.3548 5.22152C36.5916 6.5287 38.708 8.17823 39.7351 10.2013C40.731 12.2243 40.731 12.7845 39.7662 14.7141C38.8636 16.4571 38.7703 17.4841 39.4861 17.7642C40.5754 18.1688 41.1668 17.9198 41.976 16.706C43.1898 14.8698 43.3765 11.5707 42.4117 9.29868C40.7622 5.43938 35.0977 2.1403 27.9705 0.864243C25.2939 0.366272 17.4819 0.490761 14.8987 1.01986ZM62.6419 46.5845C62.6419 59.3451 62.6108 59.6874 60.9924 61.1502C60.5566 61.5548 59.6541 61.9594 58.9382 62.0528L57.6622 62.2395V59.9053C57.6622 57.4777 57.382 56.8552 56.2616 56.8552C55.1412 56.8552 54.8611 57.4777 54.8611 59.8742V62.1462H52.3712H49.8813V60.0298C49.8813 57.5088 49.4767 56.7618 48.1695 56.9174L47.2358 57.0108L47.1425 59.5629L47.0491 62.1462H44.5903H42.1005V60.092C42.1005 57.571 41.7581 56.8552 40.5443 56.8552C39.3305 56.8552 38.9881 57.571 38.9881 60.092V62.1462H36.6539H34.3196V60.3099C34.3196 57.6955 33.9462 56.8552 32.7946 56.8552C31.5497 56.8552 31.2073 57.571 31.2073 60.092V62.1462H28.7174H26.2587L26.1653 59.5629L26.0719 57.0108L25.1382 56.9174C23.8311 56.7618 23.4265 57.5088 23.4265 60.0298V62.1462H20.9366H18.4467V49.0743V36.0337L39.2371 35.9403C57.8178 35.8469 60.0898 35.7847 60.9301 35.3489C62.7353 34.353 62.6419 33.7928 62.6419 46.5845Z" fill="#3B5998"/>
<path d="M18.7577 8.58287C17.0148 9.14309 15.4275 10.1702 15.0852 10.9482C13.6535 14.0917 16.797 16.7994 21.8701 16.7994C26.0095 16.7994 29.0284 14.932 29.0284 12.411C28.9973 9.9523 26.6319 8.52062 22.3369 8.39613C20.8119 8.36501 19.1935 8.42725 18.7577 8.58287ZM24.2666 11.2595C26.5075 11.9442 26.8809 12.4733 25.5426 13.2825C24.7334 13.7805 23.9865 13.905 21.9323 13.905C17.6062 13.905 16.05 12.4422 19.2246 11.3528C21.1854 10.6993 22.2747 10.6681 24.2666 11.2595Z" fill="#3B5998"/>
</svg>
