<svg width="19" height="18" viewBox="0 0 19 18" fill="none" xmlns="http://www.w3.org/2000/svg">
<path d="M5.61342 16.9781L0.912364 17.9794L1.95724 13.4742C1.26912 12.2408 0.910166 10.8633 0.912364 9.46462C0.912364 4.7619 4.89018 0.949829 9.79736 0.949829C14.7045 0.949829 18.6824 4.7619 18.6824 9.46462C18.6824 14.1673 14.7045 17.9794 9.79736 17.9794C8.33787 17.9815 6.90051 17.6375 5.61342 16.9781V16.9781ZM5.87108 15.1789L6.45127 15.4769C7.48064 16.0041 8.63022 16.2788 9.79736 16.2764C11.2032 16.2764 12.5774 15.8769 13.7464 15.1284C14.9153 14.38 15.8263 13.3161 16.3643 12.0714C16.9023 10.8267 17.043 9.45706 16.7688 8.1357C16.4945 6.81433 15.8175 5.60058 14.8235 4.64793C13.8294 3.69527 12.5629 3.04651 11.1841 2.78367C9.80525 2.52084 8.37606 2.65574 7.07725 3.17131C5.77843 3.68688 4.66831 4.55997 3.88728 5.68017C3.10624 6.80037 2.68936 8.11737 2.68936 9.46462C2.68936 10.6005 2.97813 11.6938 3.52455 12.6713L3.83464 13.2273L3.25267 15.7366L5.87108 15.1789V15.1789Z" fill="#3F3F3F"/>
</svg>
