<svg width="18" height="18" viewBox="0 0 18 18" fill="none" xmlns="http://www.w3.org/2000/svg">
<path d="M15.6667 2.33329V12.3333H5.66666V2.33329H15.6667ZM15.6667 0.666626H5.66666C4.74999 0.666626 3.99999 1.41663 3.99999 2.33329V12.3333C3.99999 13.25 4.74999 14 5.66666 14H15.6667C16.5833 14 17.3333 13.25 17.3333 12.3333V2.33329C17.3333 1.41663 16.5833 0.666626 15.6667 0.666626ZM8.58332 8.72496L9.99166 10.6083L12.0583 8.02496L14.8333 11.5H6.49999L8.58332 8.72496ZM0.666656 3.99996V15.6666C0.666656 16.5833 1.41666 17.3333 2.33332 17.3333H14V15.6666H2.33332V3.99996H0.666656Z" fill="#888888"/>
</svg>
