<?xml version="1.0" standalone="no"?>
<!DOCTYPE svg PUBLIC "-//W3C//DTD SVG 20010904//EN"
 "http://www.w3.org/TR/2001/REC-SVG-20010904/DTD/svg10.dtd">
<svg version="1.0" xmlns="http://www.w3.org/2000/svg"
 width="352.000000pt" height="352.000000pt" viewBox="0 0 352.000000 352.000000"
 preserveAspectRatio="xMidYMid meet">

<g transform="translate(0.000000,352.000000) scale(0.100000,-0.100000)"
fill="#000000" stroke="none">
<path d="M1143 3033 c-330 -258 -715 -558 -856 -668 -141 -110 -259 -208 -263
-218 -8 -26 12 -52 144 -187 124 -127 137 -134 192 -105 l30 16 0 -875 0 -875
-175 -3 c-183 -3 -195 -6 -195 -48 0 -48 -102 -45 1740 -45 1842 0 1740 -3
1740 45 0 42 -12 45 -194 48 l-175 3 -3 340 c-3 324 -4 341 -22 355 -24 17
-28 17 -52 0 -18 -14 -19 -31 -22 -355 l-3 -341 -1105 0 -1104 0 -1 323 c-1
177 -4 336 -8 352 -5 25 -12 31 -39 33 -27 3 -34 -1 -42 -23 -6 -16 -10 -160
-10 -356 l0 -329 -115 0 -115 0 0 918 0 919 630 492 c347 271 636 491 644 489
7 -2 295 -223 639 -492 l627 -489 1 -281 c1 -155 4 -312 8 -351 6 -68 7 -70
36 -73 53 -6 55 3 55 325 l0 294 30 -16 c16 -8 38 -15 50 -15 27 0 290 261
290 288 0 25 -51 70 -269 237 l-170 130 0 356 c-1 290 -4 359 -15 375 -14 18
-28 19 -235 19 -148 0 -224 -4 -231 -11 -7 -7 -14 -76 -17 -176 l-6 -165 -316
246 c-405 317 -465 361 -483 361 -8 0 -285 -210 -615 -467z m691 299 c33 -27
381 -298 771 -602 391 -304 722 -564 738 -578 l27 -26 -82 -83 c-45 -46 -86
-83 -91 -83 -4 0 -258 195 -565 433 -678 528 -861 667 -874 667 -12 0 -1 8
-758 -580 -344 -268 -638 -495 -654 -505 l-28 -19 -80 82 c-44 45 -78 87 -76
94 5 14 62 59 972 770 336 262 617 477 625 477 7 1 41 -21 75 -47z m1126 -446
c0 -208 -3 -266 -13 -275 -11 -8 -44 13 -150 95 l-137 107 0 168 0 169 150 0
150 0 0 -264z"/>
<path d="M1070 1990 c-13 -8 -15 -96 -15 -694 0 -474 3 -688 11 -696 25 -25
1344 -24 1385 1 12 7 14 120 14 693 0 376 -4 688 -8 693 -12 12 -1368 15
-1387 3z m640 -370 l0 -280 -280 0 -280 0 0 280 0 280 280 0 280 0 0 -280z
m660 0 l0 -280 -280 0 -280 0 0 280 0 280 280 0 280 0 0 -280z m-660 -660 l0
-280 -280 0 -280 0 0 280 0 280 280 0 280 0 0 -280z m660 0 l0 -280 -280 0
-280 0 0 280 0 280 280 0 280 0 0 -280z"/>
<path d="M729 1079 c-18 -34 3 -69 41 -69 22 0 33 6 41 24 16 35 -3 66 -41 66
-20 0 -33 -7 -41 -21z"/>
<path d="M3050 1050 c-24 -24 -24 -29 -4 -58 18 -27 45 -28 67 -4 23 25 21 48
-5 66 -29 20 -34 20 -58 -4z"/>
</g>
</svg>
