<svg width="82" height="75" viewBox="0 0 82 75" fill="none" xmlns="http://www.w3.org/2000/svg">
<circle cx="50.5002" cy="15.5001" r="4.5" fill="#FF8159"/>
<rect x="27.0002" y="25.0001" width="47" height="32" fill="#FFF0BC"/>
<rect x="43.0002" y="33.0001" width="15" height="24" fill="#9CBCFF"/>
<path d="M27.2299 0.474384C26.8816 0.822617 26.7656 3.5698 26.7656 10.4958V20.0529L24.444 21.9488C21.5034 24.3091 21.3873 25.2764 24.1345 25.4698L25.9917 25.5859L26.0691 41.7208L26.1852 57.8556H50.5616H74.9379L75.054 41.7208L75.1314 25.5859L76.9886 25.4698C79.9293 25.2764 79.6584 24.3478 75.6731 21.0976C73.8158 19.5886 68.3989 15.1776 63.5623 11.2309C50.4842 0.551773 50.755 0.745232 50.0199 1.17085C49.6716 1.36432 46.6149 3.80196 43.2099 6.58783L37.0191 11.6953L36.903 6.35567C36.8644 3.22157 36.6322 0.82262 36.3613 0.513081C35.8196 -0.144695 27.8877 -0.183392 27.2299 0.474384ZM34.5041 7.86468V13.7847L31.9891 15.7967C30.6348 16.9188 29.3193 17.8087 29.0871 17.8087C28.6615 17.8087 28.5067 3.64718 28.9324 2.56379C29.1258 2.09948 29.7449 1.94471 31.8343 1.94471H34.5041V7.86468ZM53.773 5.93005C55.3981 7.28429 58.7644 9.99278 61.202 11.9661C63.6397 13.9781 67.7024 17.267 70.1787 19.279C72.6938 21.291 74.6284 23.1096 74.5123 23.2644C74.2415 23.7287 26.3786 23.7287 26.3786 23.3031C26.3786 23.1096 28.855 20.9428 31.9117 18.5052C34.9297 16.0675 38.9924 12.7786 40.8884 11.1922C47.8531 5.54312 50.4068 3.49241 50.6002 3.49241C50.6776 3.49241 52.1093 4.57581 53.773 5.93005ZM73.0033 26.3985C73.1194 26.9015 73.1581 33.7114 73.1194 41.6047L73.0033 55.921L66.3482 56.037L59.6543 56.1144L59.5769 44.0423L59.4609 31.9315H50.5616H41.6622L41.5462 44.0423L41.4688 56.1144L34.7749 56.037L28.1198 55.921L28.0037 40.7147L27.9263 25.5472H50.3681H72.8098L73.0033 26.3985ZM57.3328 44.8936V56.1144H50.5616H43.7903V44.8936V33.6727H50.5616H57.3328V44.8936Z" fill="black"/>
<path d="M48.0846 9.99229C46.0339 10.9983 45.1826 12.4686 45.1826 14.8289C45.1826 18.1951 47.1559 20.2072 50.5609 20.2072C52.9985 20.2072 54.5462 19.2398 55.4749 17.1504C56.7904 14.1711 55.8231 11.3852 53.0372 9.99229C52.3021 9.60536 51.2187 9.29582 50.5609 9.29582C49.9418 9.29582 48.8197 9.60536 48.0846 9.99229ZM52.9598 12.5847C54.1206 13.7455 54.3141 14.1324 54.0819 15.1771C53.6176 17.5374 51.4121 18.8916 49.3614 18.0017C47.9298 17.4213 47.3494 16.6861 47.0399 15.1771C46.8464 14.1324 47.0012 13.7455 48.162 12.5847C49.0519 11.6948 49.8644 11.2305 50.5609 11.2305C51.2574 11.2305 52.0699 11.6948 52.9598 12.5847Z" fill="black"/>
<path d="M4.33358 3.68634C1.47032 6.12398 0 7.63299 0.0773853 8.05861C0.309541 9.37416 1.47032 8.87116 4.56573 6.20137L7.73853 3.45419V29.9973V56.5405L4.44966 53.832C1.23817 51.1622 0 50.7366 0 52.2069C0 52.5552 1.23817 53.9094 2.78587 55.1863C7.66115 59.1716 8.89931 60.0229 9.40232 59.752C9.63447 59.5972 11.6465 57.9721 13.852 56.1536C16.7926 53.7546 17.7986 52.6712 17.7212 52.0909C17.6439 51.7039 17.4117 51.2783 17.1795 51.2009C16.9087 51.1235 15.2449 52.2456 13.5037 53.7546L10.2536 56.4631L10.1375 43.3463C10.0988 36.1495 10.0988 24.2321 10.1375 16.9192L10.2536 3.57026L13.4264 6.27875C16.5991 8.98724 17.7986 9.41286 17.7986 7.82646C17.7986 7.16868 10.447 0.668316 9.13147 0.16531C8.89931 0.087925 6.69383 1.67432 4.33358 3.68634Z" fill="black"/>
<path d="M25.7205 63.311C23.7472 65.1296 22.1221 66.9481 22.1221 67.2964C22.1221 68.1476 29.2802 75.1897 29.938 74.9962C31.1762 74.5706 30.6345 73.255 28.3129 71.0496C26.9973 69.8114 26.03 68.728 26.1074 68.6506C26.1848 68.5732 37.9087 68.5345 52.1476 68.5732L78.033 68.6893L75.5953 71.0883C73.119 73.5259 72.7321 74.4158 73.8542 74.8414C74.3185 75.0349 75.4792 74.145 78.1103 71.5139C80.0837 69.5405 81.7088 67.6833 81.7088 67.3351C81.7088 66.5225 75.0923 59.9835 74.2411 59.9835C72.6934 59.9835 73.0803 61.2216 75.4792 63.6206C76.7561 64.9361 77.8395 66.1356 77.8395 66.2904C77.8395 66.4451 66.193 66.5612 51.9154 66.5612C37.6378 66.5612 25.9913 66.4064 25.9913 66.2517C25.9913 66.0969 27.036 64.9361 28.3129 63.6593C30.6345 61.3764 31.2535 59.9835 29.9767 59.9835C29.5898 59.9835 27.6551 61.4925 25.7205 63.311Z" fill="black"/>
</svg>
