<svg width="14" height="13" viewBox="0 0 14 13" fill="none" xmlns="http://www.w3.org/2000/svg">
<path d="M8.41584 5.22985H12.2068C12.521 5.22985 12.8223 5.35467 13.0445 5.57683C13.2666 5.799 13.3914 6.10033 13.3914 6.41452V7.66079C13.3916 7.8156 13.3614 7.96894 13.3026 8.11215L11.4693 12.5635C11.4246 12.6721 11.3486 12.7648 11.2511 12.8301C11.1535 12.8954 11.0388 12.9302 10.9214 12.9302H0.952441C0.795344 12.9302 0.644682 12.8678 0.533598 12.7567C0.422514 12.6456 0.360107 12.4949 0.360107 12.3379V6.41452C0.360107 6.25742 0.422514 6.10676 0.533598 5.99568C0.644682 5.88459 0.795344 5.82219 0.952441 5.82219H3.01494C3.10978 5.82221 3.20323 5.79947 3.28744 5.75587C3.37165 5.71226 3.44416 5.64908 3.49888 5.57163L6.72887 0.994672C6.76971 0.936808 6.82992 0.895492 6.8986 0.878213C6.96728 0.860935 7.03988 0.868838 7.10323 0.900491L8.17772 1.43774C8.48011 1.58888 8.72168 1.83893 8.8623 2.14635C9.00292 2.45378 9.03412 2.80006 8.95072 3.12766L8.41584 5.22985ZM3.91411 6.76281V11.7455H10.5245L12.2068 7.66079V6.41452H8.41584C8.23541 6.41449 8.05738 6.37326 7.89531 6.29396C7.73325 6.21465 7.59144 6.09938 7.48071 5.95693C7.36997 5.81449 7.29324 5.64863 7.25636 5.47201C7.21948 5.2954 7.22342 5.11269 7.2679 4.93783L7.80277 2.83624C7.81951 2.77068 7.8133 2.70137 7.78518 2.63983C7.75705 2.5783 7.7087 2.52825 7.64818 2.49801L7.25664 2.30254L4.46675 6.25459C4.31867 6.46428 4.12912 6.63605 3.91411 6.76281ZM2.72944 7.00685H1.54477V11.7455H2.72944V7.00685Z" fill="#888888"/>
</svg>
