<svg width="12" height="16" viewBox="0 0 12 16" fill="none" xmlns="http://www.w3.org/2000/svg">
<path d="M5.6 0C2.504 0 0 2.504 0 5.6C0 9.8 5.6 16 5.6 16C5.6 16 11.2 9.8 11.2 5.6C11.2 2.504 8.696 0 5.6 0ZM1.6 5.6C1.6 3.392 3.392 1.6 5.6 1.6C7.808 1.6 9.6 3.392 9.6 5.6C9.6 7.904 7.296 11.352 5.6 13.504C3.936 11.368 1.6 7.88 1.6 5.6Z" fill="#888888"/>
<path d="M5.59961 7.59998C6.70418 7.59998 7.59961 6.70455 7.59961 5.59998C7.59961 4.49541 6.70418 3.59998 5.59961 3.59998C4.49504 3.59998 3.59961 4.49541 3.59961 5.59998C3.59961 6.70455 4.49504 7.59998 5.59961 7.59998Z" fill="#888888"/>
</svg>
