<svg width="58" height="75" viewBox="0 0 58 75" fill="none" xmlns="http://www.w3.org/2000/svg">
<path d="M57.832 30.5C53.332 48 40.332 63.5 29.332 74C16.332 61 3.83203 46 0.832031 30.5C0.832031 14.7599 13.5919 2 29.332 2C45.0721 2 57.832 14.7599 57.832 30.5Z" fill="#FFF0BC"/>
<circle cx="29.332" cy="28.5" r="17.5" fill="#9CBCFF"/>
<path d="M20.1792 1.42046C14.9192 3.29472 11.9566 5.22943 8.20812 9.40115C2.88766 15.2053 0.832031 20.6467 0.832031 28.9297C0.832031 37.6359 4.76192 47.128 12.8635 58.0713C16.8539 63.5126 27.9785 75 29.2481 75C30.5178 75 41.6424 63.5126 45.6327 58.0713C53.7343 47.128 57.6642 37.6359 57.6642 28.9297C57.6642 20.5257 55.3667 14.7216 49.6231 8.67564C47.9906 6.9223 45.5118 4.80621 44.1212 4.02023C36.9265 -0.151489 27.6157 -1.17931 20.1792 1.42046ZM40.3123 4.6853C47.9906 8.31287 54.0366 16.4145 55.2458 24.6975C56.9387 36.729 49.8044 51.6021 35.1127 66.717C32.2711 69.6191 29.6713 71.977 29.2481 71.977C28.8249 71.977 26.2251 69.6191 23.3835 66.717C1.79939 44.5283 -2.85601 23.5487 10.8079 9.94529C16.3702 4.383 21.5093 2.44828 30.155 2.62966C35.5359 2.75058 36.6847 2.99242 40.3123 4.6853Z" fill="black"/>
<path d="M24.1098 9.88594C20.3009 11.1556 18.1848 12.4252 15.5246 15.1459C11.4738 19.1363 10.2041 22.4011 10.2041 28.4471C10.2041 32.8606 10.4459 34.0698 11.897 37.0324C17.6407 48.7616 33.4811 51.4823 42.7315 42.2319C46.9636 37.9997 48.2938 34.7349 48.2938 28.4471C48.2938 22.4011 46.9032 18.834 42.9128 14.9646C38.076 10.2487 29.8535 8.01169 24.1098 9.88594ZM28.1607 13.1508C28.2816 14.1786 28.7048 14.8436 29.2489 14.8436C29.7931 14.8436 30.2163 14.1786 30.3372 13.1508C30.579 11.2161 30.5186 11.2765 34.4485 12.4252C39.7689 13.9972 44.908 19.62 45.8754 24.88C46.2381 26.9356 46.1777 27.0565 44.3639 27.4797C42.0664 27.9029 42.1873 29.2935 44.6057 29.5354C46.1777 29.7167 46.2986 29.8981 45.8754 31.9538C44.8475 37.3347 40.4944 42.5342 35.5367 44.348C31.4255 45.799 30.4581 45.6781 30.4581 43.8643C30.4581 42.776 30.1558 42.3528 29.2489 42.3528C28.342 42.3528 28.0397 42.776 28.0397 43.8643C28.0397 45.6781 27.0724 45.799 22.9611 44.348C18.0034 42.5342 13.6503 37.3347 12.6225 31.9538C12.1993 29.8981 12.3202 29.7167 13.8921 29.5354C16.3105 29.2935 16.4315 27.9029 14.134 27.4797C12.3202 27.0565 12.2597 26.9356 12.6225 24.88C13.5294 19.7409 18.7289 13.9972 23.8075 12.4252C27.6165 11.2765 27.9188 11.337 28.1607 13.1508Z" fill="black"/>
<path d="M21.0257 20.6475C20.6629 21.2521 24.2301 25.6052 26.1043 26.8144C26.4671 27.0562 26.8298 27.8422 26.8298 28.4468C26.8298 29.0514 27.1321 29.7769 27.4344 29.9583C27.7972 30.1396 28.039 31.8325 28.039 33.6463C28.039 36.4879 28.1599 36.9111 29.2482 36.9111C30.3365 36.9111 30.4574 36.4879 30.4574 33.5858C30.4574 31.7721 30.7597 30.2606 31.062 30.2606C31.9085 30.2606 31.848 27.6608 30.9411 26.7539C30.5179 26.3307 29.7924 26.0284 29.2482 26.0284C28.7041 26.0284 26.9508 24.6378 25.3183 23.0054C22.1744 19.8615 21.6908 19.5592 21.0257 20.6475Z" fill="black"/>
</svg>
