<svg width="20" height="20" viewBox="0 0 20 20" fill="none" xmlns="http://www.w3.org/2000/svg">
<path d="M0 10.0056V20H9.99442H20L19.9665 18.2915L19.933 16.5941L11.703 16.5606L3.46175 16.5382L3.43942 8.29704L3.40592 0.0670013L1.70854 0.0335005L0 -3.41795e-07V10.0056ZM3.01508 0.848688C3.01508 1.23953 3.01508 1.23953 2.51256 1.23953C2.08822 1.23953 2.01005 1.27303 2.01005 1.46287C2.01005 1.65271 2.08822 1.68621 2.51256 1.68621C2.97041 1.68621 3.01508 1.70854 3.01508 1.95422C3.01508 2.15522 2.94807 2.23339 2.7694 2.26689C2.62423 2.28922 2.51256 2.37856 2.51256 2.46789C2.51256 2.55723 2.62423 2.64657 2.7694 2.6689C2.94807 2.7024 3.01508 2.78057 3.01508 2.98157C3.01508 3.22725 2.97041 3.24958 2.51256 3.24958C2.08822 3.24958 2.01005 3.28308 2.01005 3.47292C2.01005 3.66276 2.08822 3.69626 2.51256 3.69626C2.97041 3.69626 3.01508 3.71859 3.01508 3.96427C3.01508 4.16527 2.94807 4.24344 2.7694 4.27694C2.62423 4.29927 2.51256 4.38861 2.51256 4.47795C2.51256 4.56728 2.62423 4.65662 2.7694 4.67895C2.94807 4.71245 3.01508 4.79062 3.01508 4.99162C3.01508 5.2373 2.97041 5.25963 2.51256 5.25963C2.08822 5.25963 2.01005 5.29313 2.01005 5.48297C2.01005 5.67281 2.08822 5.70631 2.51256 5.70631C2.97041 5.70631 3.01508 5.72864 3.01508 5.97432C3.01508 6.17532 2.94807 6.25349 2.7694 6.28699C2.62423 6.30932 2.51256 6.39866 2.51256 6.488C2.51256 6.57733 2.62423 6.66667 2.7694 6.689C2.94807 6.7225 3.01508 6.80067 3.01508 7.00167C3.01508 7.24735 2.97041 7.26968 2.51256 7.26968C2.08822 7.26968 2.01005 7.30318 2.01005 7.49302C2.01005 7.68286 2.08822 7.71636 2.51256 7.71636C2.97041 7.71636 3.01508 7.73869 3.01508 7.98437C3.01508 8.18537 2.94807 8.26354 2.7694 8.29704C2.62423 8.31937 2.51256 8.40871 2.51256 8.49805C2.51256 8.58738 2.62423 8.67672 2.7694 8.69905C2.94807 8.73255 3.01508 8.81072 3.01508 9.01173C3.01508 9.2574 2.97041 9.27973 2.51256 9.27973C2.08822 9.27973 2.01005 9.31323 2.01005 9.50307C2.01005 9.69291 2.08822 9.72641 2.51256 9.72641C2.97041 9.72641 3.01508 9.74874 3.01508 9.99442C3.01508 10.1954 2.94807 10.2736 2.7694 10.3071C2.62423 10.3294 2.51256 10.4188 2.51256 10.5081C2.51256 10.5974 2.62423 10.6868 2.7694 10.7091C2.94807 10.7426 3.01508 10.8208 3.01508 11.0218C3.01508 11.2674 2.97041 11.2898 2.51256 11.2898C2.08822 11.2898 2.01005 11.3233 2.01005 11.5131C2.01005 11.703 2.08822 11.7365 2.51256 11.7365C2.97041 11.7365 3.01508 11.7588 3.01508 12.0045C3.01508 12.2055 2.94807 12.2836 2.7694 12.3171C2.62423 12.3395 2.51256 12.4288 2.51256 12.5181C2.51256 12.6075 2.62423 12.6968 2.7694 12.7192C2.94807 12.7527 3.01508 12.8308 3.01508 13.0318C3.01508 13.2775 2.97041 13.2998 2.51256 13.2998C2.08822 13.2998 2.01005 13.3333 2.01005 13.5232C2.01005 13.713 2.08822 13.7465 2.51256 13.7465C2.97041 13.7465 3.01508 13.7688 3.01508 14.0145C3.01508 14.2155 2.94807 14.2937 2.7694 14.3272C2.62423 14.3495 2.51256 14.4389 2.51256 14.5282C2.51256 14.6175 2.62423 14.7069 2.7694 14.7292C2.94807 14.7627 3.01508 14.8409 3.01508 15.0419C3.01508 15.2875 2.97041 15.3099 2.51256 15.3099C2.08822 15.3099 2.01005 15.3434 2.01005 15.5332C2.01005 15.7231 2.08822 15.7566 2.51256 15.7566C3.01508 15.7566 3.01508 15.7566 3.01508 16.1474V16.5382H1.73088H0.446678V8.49805V0.457844H1.73088H3.01508V0.848688ZM3.01508 18.2691V19.5533H1.73088H0.446678V18.2691V16.9849H1.73088H3.01508V18.2691ZM4.24344 17.4874C4.24344 17.9118 4.27694 17.9899 4.46678 17.9899C4.65662 17.9899 4.69012 17.9118 4.69012 17.4874C4.69012 17.0296 4.71245 16.9849 4.95812 16.9849C5.15913 16.9849 5.2373 17.0519 5.2708 17.2306C5.29313 17.3758 5.38247 17.4874 5.4718 17.4874C5.56114 17.4874 5.65047 17.3758 5.67281 17.2306C5.70631 17.0519 5.78448 16.9849 5.98548 16.9849C6.23116 16.9849 6.25349 17.0296 6.25349 17.4874C6.25349 17.9118 6.28699 17.9899 6.47683 17.9899C6.66667 17.9899 6.70017 17.9118 6.70017 17.4874C6.70017 17.0296 6.7225 16.9849 6.96817 16.9849C7.16918 16.9849 7.24735 17.0519 7.28085 17.2306C7.30318 17.3758 7.39252 17.4874 7.48185 17.4874C7.57119 17.4874 7.66052 17.3758 7.68286 17.2306C7.71636 17.0519 7.79453 16.9849 7.99553 16.9849C8.24121 16.9849 8.26354 17.0296 8.26354 17.4874C8.26354 17.9118 8.29704 17.9899 8.48688 17.9899C8.67672 17.9899 8.71022 17.9118 8.71022 17.4874C8.71022 17.0296 8.73255 16.9849 8.97822 16.9849C9.17923 16.9849 9.2574 17.0519 9.2909 17.2306C9.31323 17.3758 9.40257 17.4874 9.4919 17.4874C9.58124 17.4874 9.67058 17.3758 9.69291 17.2306C9.72641 17.0519 9.80458 16.9849 10.0056 16.9849C10.2513 16.9849 10.2736 17.0296 10.2736 17.4874C10.2736 17.9118 10.3071 17.9899 10.4969 17.9899C10.6868 17.9899 10.7203 17.9118 10.7203 17.4874C10.7203 17.0296 10.7426 16.9849 10.9883 16.9849C11.1893 16.9849 11.2674 17.0519 11.3009 17.2306C11.3233 17.3758 11.4126 17.4874 11.502 17.4874C11.5913 17.4874 11.6806 17.3758 11.703 17.2306C11.7365 17.0519 11.8146 16.9849 12.0156 16.9849C12.2613 16.9849 12.2836 17.0296 12.2836 17.4874C12.2836 17.9118 12.3171 17.9899 12.507 17.9899C12.6968 17.9899 12.7303 17.9118 12.7303 17.4874C12.7303 17.0296 12.7527 16.9849 12.9983 16.9849C13.1993 16.9849 13.2775 17.0519 13.311 17.2306C13.3333 17.3758 13.4227 17.4874 13.512 17.4874C13.6013 17.4874 13.6907 17.3758 13.713 17.2306C13.7465 17.0519 13.8247 16.9849 14.0257 16.9849C14.2714 16.9849 14.2937 17.0296 14.2937 17.4874C14.2937 17.9118 14.3272 17.9899 14.517 17.9899C14.7069 17.9899 14.7404 17.9118 14.7404 17.4874C14.7404 17.0296 14.7627 16.9849 15.0084 16.9849C15.2094 16.9849 15.2875 17.0519 15.321 17.2306C15.3434 17.3758 15.4327 17.4874 15.5221 17.4874C15.6114 17.4874 15.7007 17.3758 15.7231 17.2306C15.7566 17.0519 15.8347 16.9849 16.0357 16.9849C16.2814 16.9849 16.3037 17.0296 16.3037 17.4874C16.3037 17.9118 16.3372 17.9899 16.5271 17.9899C16.7169 17.9899 16.7504 17.9118 16.7504 17.4874C16.7504 17.0296 16.7728 16.9849 17.0184 16.9849C17.2194 16.9849 17.2976 17.0519 17.3311 17.2306C17.3534 17.3758 17.4428 17.4874 17.5321 17.4874C17.6214 17.4874 17.7108 17.3758 17.7331 17.2306C17.7666 17.0519 17.8448 16.9849 18.0458 16.9849C18.2915 16.9849 18.3138 17.0296 18.3138 17.4874C18.3138 17.9118 18.3473 17.9899 18.5371 17.9899C18.727 17.9899 18.7605 17.9118 18.7605 17.4874C18.7605 16.9849 18.7605 16.9849 19.1513 16.9849H19.5422V18.2691V19.5533H11.502H3.46175V18.2691V16.9849H3.8526C4.24344 16.9849 4.24344 16.9849 4.24344 17.4874Z" fill="black"/>
<path d="M1.30675 17.7664C0.938241 18.0567 0.90474 18.5592 1.22858 18.8831C1.69759 19.3521 2.49045 19.0059 2.49045 18.3359C2.49045 17.677 1.8316 17.3532 1.30675 17.7664ZM2.01027 18.1684C2.1331 18.3024 2.12194 18.3694 1.97677 18.5146C1.88743 18.6151 1.71993 18.6597 1.63059 18.6262C1.41842 18.5369 1.39609 18.146 1.59709 18.0679C1.82043 17.9674 1.8651 17.9785 2.01027 18.1684Z" fill="black"/>
<path d="M10.0498 10.1173V11.9598H11.8924H13.7349L13.7126 10.1396L13.6791 8.33058L11.87 8.29708L10.0498 8.27475V10.1173ZM13.2882 10.1173V11.5132H11.8924H10.4965V10.1173V8.72142H11.8924H13.2882V10.1173Z" fill="black"/>
<path d="M8.82219 5.09218C7.08015 6.84539 5.60611 8.35293 5.55027 8.45343C5.47211 8.58743 5.57261 8.7661 5.98578 9.17928C6.28729 9.48079 6.57763 9.72646 6.64463 9.72646C6.71164 9.72646 6.91264 9.57012 7.10248 9.38028L7.42632 9.04528L7.48216 11.7588L7.53799 14.4724H12.1164H16.6949L16.7507 11.8593C16.8066 9.29095 16.8066 9.25745 17.0187 9.49195C17.1416 9.62596 17.2867 9.72646 17.3537 9.72646C17.4989 9.72646 18.5374 8.71027 18.5374 8.5651C18.5374 8.50926 18.1354 8.06258 17.6441 7.56007L16.7619 6.64438L16.7284 5.48302L16.6949 4.31049L15.8909 4.27699C15.0868 4.24349 15.0757 4.24349 15.0757 4.53383C15.0757 4.69017 15.031 4.813 14.9863 4.813C14.9417 4.813 14.2493 4.15415 13.4565 3.3613C12.6748 2.55728 12.0159 1.9096 12.0048 1.9096C11.9936 1.9096 10.5642 3.33897 8.82219 5.09218ZM17.6552 8.86661L17.3649 9.19045L14.7072 6.48805C12.954 4.70133 12.0159 3.81915 11.9154 3.87498C11.8484 3.93081 10.6312 5.13685 9.2242 6.56621L6.66697 9.17928L6.35429 8.87777L6.04162 8.57626L9.02319 5.52769L12.0048 2.47911L14.9752 5.51652L17.9567 8.55393L17.6552 8.86661ZM16.304 11.4238V14.0816H12.1164H7.92883V11.3122L7.94 8.55393L9.97238 6.44338L12.0048 4.33282L14.1488 6.55505L16.2929 8.77727L16.304 11.4238ZM16.304 5.44952V6.19771L15.9132 5.81803C15.6229 5.53886 15.5224 5.34902 15.5224 5.06984C15.5224 4.72367 15.5447 4.70133 15.9132 4.70133H16.304V5.44952Z" fill="black"/>
</svg>
