<svg width="192" height="90" viewBox="0 0 192 90" fill="none" xmlns="http://www.w3.org/2000/svg">
<path d="M161.373 89.051L162.145 85.7051L170.895 82.874L179.903 85.7051L180.418 89.051" stroke="#3B5998"/>
<path d="M170.896 60.2251V82.8739" stroke="#3B5998"/>
<path d="M40.6876 88.5509H39.1867L40.8926 77.197H46.5366L40.6876 88.5509Z" fill="#E1E1E1" stroke="#3B5998"/>
<path d="M137.929 88.5509H139.43L137.724 77.197H132.08L137.929 88.5509Z" fill="#E1E1E1" stroke="#3B5998"/>
<rect x="121.465" y="0.5" width="49.445" height="20.6193" rx="1.5" fill="#FFF5FF" stroke="#3B5998"/>
<rect x="39.106" y="60.7251" width="49.9598" height="7.75067" fill="#E3ECFF" stroke="#3B5998"/>
<rect x="89.551" y="60.7251" width="49.9598" height="7.75067" fill="#E3ECFF" stroke="#3B5998"/>
<path d="M150.298 68.9612C150.045 71.8623 147.61 74.1381 144.643 74.1381H33.9728C31.006 74.1381 28.5708 71.8623 28.3176 68.9612H150.298Z" fill="#C8D5F1" stroke="#3B5998"/>
<path d="M39.106 51.488C39.106 42.3753 46.4933 34.988 55.606 34.988H85.5657C87.4987 34.988 89.0657 36.555 89.0657 38.488V56.74C89.0657 58.673 87.4987 60.24 85.5657 60.24H42.606C40.673 60.24 39.106 58.673 39.106 56.74V51.488Z" fill="#EDF3FF" stroke="#3B5998"/>
<path d="M139.511 51.488C139.511 42.3753 132.123 34.988 123.011 34.988H93.051C91.118 34.988 89.551 36.555 89.551 38.488V56.74C89.551 58.673 91.118 60.24 93.051 60.24H136.011C137.944 60.24 139.511 58.673 139.511 56.74V51.488Z" fill="#EDF3FF" stroke="#3B5998"/>
<path d="M139.996 49.4156C139.996 46.5646 142.307 44.2534 145.158 44.2534C148.009 44.2534 150.32 46.5646 150.32 49.4156V68.4759H139.996V49.4156Z" fill="#C8D5F1" stroke="#3B5998"/>
<path d="M28.2959 49.4156C28.2959 46.5646 30.6071 44.2534 33.4581 44.2534C36.3091 44.2534 38.6203 46.5646 38.6203 49.4156V68.4759H28.2959V49.4156Z" fill="#C8D5F1" stroke="#3B5998"/>
<path d="M40.5764 76.7118C39.3359 76.7118 38.3064 75.8082 38.1101 74.6233H49.3966C49.2003 75.8082 48.1708 76.7118 46.9303 76.7118H40.5764Z" fill="#A8B9DE" stroke="#3B5998"/>
<path d="M131.171 76.7118C129.931 76.7118 128.901 75.8082 128.705 74.6233H139.992C139.795 75.8082 138.766 76.7118 137.525 76.7118H131.171Z" fill="#A8B9DE" stroke="#3B5998"/>
<line x1="4.37114e-08" y1="88.5508" x2="192" y2="88.5508" stroke="#3B5998"/>
<path d="M6.16235 85.9036C6.16235 85.0751 6.83393 84.4036 7.66235 84.4036H19.1047C19.9331 84.4036 20.6047 85.0751 20.6047 85.9036V88.551H6.16235V85.9036Z" fill="#A8B9DE" stroke="#3B5998"/>
<circle cx="13.641" cy="45.5551" r="2.84584" fill="white" stroke="#3B5998"/>
<circle cx="59.4533" cy="3.34584" r="2.84584" fill="white" stroke="#3B5998"/>
<path d="M13.6406 43.2385C14.4127 10.2948 39.6353 3.08936 57.394 3.08936" stroke="#3B5998"/>
<line x1="13.8833" y1="47.8713" x2="13.8833" y2="83.9035" stroke="#3B5998"/>
<line x1="60.6844" y1="4.9505" x2="63.7729" y2="12.1569" stroke="#3B5998"/>
<mask id="path-22-inside-1_7979_26895" fill="white">
<path fill-rule="evenodd" clip-rule="evenodd" d="M74.6141 19.5605H74.6381V26.2522H51.4746V19.5605H51.5012C51.8986 14.6738 56.9207 10.8098 63.0577 10.8098C69.1947 10.8098 74.2168 14.6738 74.6141 19.5605Z"/>
</mask>
<path fill-rule="evenodd" clip-rule="evenodd" d="M74.6141 19.5605H74.6381V26.2522H51.4746V19.5605H51.5012C51.8986 14.6738 56.9207 10.8098 63.0577 10.8098C69.1947 10.8098 74.2168 14.6738 74.6141 19.5605Z" fill="#FBF6E0"/>
<path d="M74.6141 19.5605L73.6174 19.6415L73.6921 20.5605H74.6141V19.5605ZM74.6381 19.5605H75.6381V18.5605H74.6381V19.5605ZM74.6381 26.2522V27.2522H75.6381V26.2522H74.6381ZM51.4746 26.2522H50.4746V27.2522H51.4746V26.2522ZM51.4746 19.5605V18.5605H50.4746V19.5605H51.4746ZM51.5012 19.5605V20.5605H52.4232L52.498 19.6415L51.5012 19.5605ZM74.6141 20.5605H74.6381V18.5605H74.6141V20.5605ZM73.6381 19.5605V26.2522H75.6381V19.5605H73.6381ZM74.6381 25.2522H51.4746V27.2522H74.6381V25.2522ZM52.4746 26.2522V19.5605H50.4746V26.2522H52.4746ZM51.4746 20.5605H51.5012V18.5605H51.4746V20.5605ZM52.498 19.6415C52.8399 15.4357 57.2619 11.8098 63.0577 11.8098V9.80981C56.5795 9.80981 50.9572 13.912 50.5045 19.4794L52.498 19.6415ZM63.0577 11.8098C68.8535 11.8098 73.2754 15.4357 73.6174 19.6415L75.6108 19.4794C75.1581 13.912 69.5358 9.80981 63.0577 9.80981V11.8098Z" fill="#3B5998" mask="url(#path-22-inside-1_7979_26895)"/>
<line x1="51.4746" y1="22.1487" x2="67.4317" y2="22.1487" stroke="#3B5998"/>
<rect x="68.9761" y="22.134" width="0.514745" height="0.514745" fill="#3B5998"/>
<rect x="155.953" y="58.1514" width="29.37" height="2.08847" fill="#A8B9DE" stroke="#3B5998"/>
<rect x="161.615" y="51.4597" width="4.6622" height="6.20643" fill="white" stroke="#3B5998"/>
<mask id="path-28-inside-2_7979_26895" fill="white">
<path fill-rule="evenodd" clip-rule="evenodd" d="M161.63 51.9893C159.924 51.9896 158.542 53.1417 158.542 54.563C158.542 55.9842 159.924 57.1364 161.63 57.1367V51.9893Z"/>
</mask>
<path fill-rule="evenodd" clip-rule="evenodd" d="M161.63 51.9893C159.924 51.9896 158.542 53.1417 158.542 54.563C158.542 55.9842 159.924 57.1364 161.63 57.1367V51.9893Z" fill="#D9D9D9"/>
<path d="M161.63 51.9893H162.63V50.9891L161.63 50.9893L161.63 51.9893ZM161.63 57.1367L161.63 58.1367L162.63 58.1369V57.1367H161.63ZM159.542 54.563C159.542 53.8569 160.298 52.9895 161.63 52.9893L161.63 50.9893C159.55 50.9896 157.542 52.4266 157.542 54.563H159.542ZM161.63 56.1367C160.298 56.1365 159.542 55.2691 159.542 54.563H157.542C157.542 56.6994 159.55 58.1363 161.63 58.1367L161.63 56.1367ZM162.63 57.1367V51.9893H160.63V57.1367H162.63Z" fill="#3B5998" mask="url(#path-28-inside-2_7979_26895)"/>
</svg>
