<?xml version="1.0" standalone="no"?>
<!DOCTYPE svg PUBLIC "-//W3C//DTD SVG 20010904//EN"
 "http://www.w3.org/TR/2001/REC-SVG-20010904/DTD/svg10.dtd">
<svg version="1.0" xmlns="http://www.w3.org/2000/svg"
 width="352.000000pt" height="352.000000pt" viewBox="0 0 352.000000 352.000000"
 preserveAspectRatio="xMidYMid meet">

<g transform="translate(0.000000,352.000000) scale(0.100000,-0.100000)"
fill="#000000" stroke="none">
<path d="M917 3488 c-16 -12 -17 -38 -15 -322 3 -282 5 -310 21 -320 12 -8 22
-8 35 0 15 10 17 37 20 283 3 351 -5 400 -61 359z"/>
<path d="M1419 3423 c-153 -125 -277 -233 -282 -247 -7 -17 43 -64 218 -210
139 -116 177 -138 197 -118 24 24 -5 61 -128 162 l-127 105 209 6 c115 3 427
6 694 6 267 0 579 -3 694 -6 l208 -6 -126 -105 c-122 -101 -151 -139 -128
-162 20 -20 58 2 197 118 172 142 215 183 215 205 0 17 -330 304 -370 323 -25
11 -52 -10 -48 -38 2 -12 56 -65 134 -131 l132 -110 -454 -3 c-250 -1 -658 -1
-908 0 l-454 3 129 108 c72 60 133 115 136 124 7 19 -8 47 -28 51 -8 1 -57
-33 -110 -75z"/>
<path d="M3432 3483 c-4 -10 -7 -155 -7 -322 0 -278 1 -305 18 -315 12 -8 22
-8 35 0 15 10 17 38 20 319 2 219 -1 312 -9 321 -16 20 -48 17 -57 -3z"/>
<path d="M28 2595 c-22 -49 -13 -50 324 -50 285 0 312 1 322 18 8 12 8 22 0
35 -10 15 -39 17 -323 20 l-311 2 -12 -25z"/>
<path d="M1076 2613 c-49 -5 -107 -44 -143 -95 l-28 -41 -3 -1151 -2 -1150 35
-52 c23 -33 53 -61 84 -78 l49 -26 1144 2 1143 3 45 33 c25 17 56 49 70 69
l25 37 3 1149 2 1150 -31 49 c-21 32 -49 59 -83 79 l-51 29 -1110 -2 c-610 -1
-1127 -3 -1149 -5z m2248 -88 c3 -10 -177 -198 -559 -582 l-565 -568 -565 569
c-458 460 -564 571 -554 582 10 12 184 14 1124 14 974 0 1114 -2 1119 -15z
m-1544 -840 l365 -366 -568 -565 c-462 -459 -572 -563 -583 -553 -20 16 -21
2235 -1 2242 15 5 303 -273 787 -758z m1640 -370 c0 -971 -2 -1114 -15 -1119
-10 -3 -200 179 -582 559 l-568 565 569 565 c460 458 571 564 582 554 12 -10
14 -184 14 -1124z m-648 -625 c466 -467 558 -563 548 -575 -19 -23 -2235 -22
-2243 0 -7 16 1099 1135 1122 1135 8 0 266 -252 573 -560z"/>
<path d="M258 2293 c-165 -191 -239 -285 -236 -300 4 -21 32 -38 51 -30 9 3
64 64 124 136 l108 129 3 -454 c1 -250 1 -658 0 -908 l-3 -454 -110 132 c-85
100 -116 131 -134 131 -47 0 -48 -29 -3 -88 103 -132 275 -327 291 -327 22 0
63 43 205 215 116 139 138 177 118 197 -24 24 -61 -5 -162 -128 l-105 -127 -6
209 c-8 270 -8 1118 0 1388 l6 209 109 -132 c94 -114 113 -132 135 -129 49 6
38 39 -47 144 -113 141 -214 255 -238 271 -20 13 -26 8 -106 -84z"/>
<path d="M83 93 c-55 -4 -71 -20 -53 -54 10 -18 25 -19 325 -19 l315 0 6 25
c13 54 5 55 -280 53 -143 -1 -284 -3 -313 -5z"/>
</g>
</svg>
