<svg width="19" height="16" viewBox="0 0 19 16" fill="none" xmlns="http://www.w3.org/2000/svg">
<path d="M9.16649 10.7975H7.38949C5.932 10.7969 4.50207 11.1947 3.2543 11.948C2.00653 12.7012 0.988386 13.7812 0.309927 15.0711C0.290857 14.8317 0.281372 14.5916 0.281495 14.3515C0.281495 9.44427 4.25931 5.46646 9.16649 5.46646V0.579712L18.4957 8.13196L9.16649 15.6842V10.7975ZM7.38949 9.02046H10.9435V11.9596L15.6712 8.13196L10.9435 4.3043V7.24346H9.16649C8.14494 7.24231 7.1352 7.46187 6.20636 7.88711C5.27752 8.31235 4.45151 8.93323 3.78485 9.70727C4.93219 9.25255 6.15533 9.0195 7.38949 9.02046Z" fill="#3F3F3F"/>
</svg>
