<svg width="15" height="15" viewBox="0 0 15 15" fill="none" xmlns="http://www.w3.org/2000/svg">
<path d="M6.39375 9.20625L4.55625 7.36875C4.44375 7.25625 4.30625 7.2 4.14375 7.2C3.98125 7.2 3.8375 7.2625 3.7125 7.3875C3.5875 7.5125 3.525 7.65625 3.525 7.81875C3.525 7.98125 3.5875 8.11875 3.7125 8.23125L6 10.5187C6.1125 10.6312 6.24375 10.6875 6.39375 10.6875C6.54375 10.6875 6.675 10.6312 6.7875 10.5187L11.2875 6.01875C11.4 5.90625 11.4531 5.76875 11.4469 5.60625C11.4406 5.44375 11.3812 5.30625 11.2687 5.19375C11.1562 5.06875 11.0156 5.00625 10.8469 5.00625C10.6781 5.00625 10.5312 5.06875 10.4062 5.19375L6.39375 9.20625ZM7.5 15C6.4375 15 5.45 14.8094 4.5375 14.4281C3.625 14.0469 2.83125 13.5188 2.15625 12.8438C1.48125 12.1687 0.953125 11.375 0.571875 10.4625C0.190625 9.55 0 8.5625 0 7.5C0 6.45 0.190625 5.46875 0.571875 4.55625C0.953125 3.64375 1.48125 2.85 2.15625 2.175C2.83125 1.5 3.625 0.96875 4.5375 0.58125C5.45 0.19375 6.4375 0 7.5 0C8.55 0 9.53125 0.19375 10.4438 0.58125C11.3562 0.96875 12.15 1.5 12.825 2.175C13.5 2.85 14.0312 3.64375 14.4188 4.55625C14.8063 5.46875 15 6.45 15 7.5C15 8.5625 14.8063 9.55 14.4188 10.4625C14.0312 11.375 13.5 12.1687 12.825 12.8438C12.15 13.5188 11.3562 14.0469 10.4438 14.4281C9.53125 14.8094 8.55 15 7.5 15ZM7.5 13.875C9.3125 13.875 10.8281 13.2656 12.0469 12.0469C13.2656 10.8281 13.875 9.3125 13.875 7.5C13.875 5.6875 13.2656 4.17188 12.0469 2.95312C10.8281 1.73438 9.3125 1.125 7.5 1.125C5.6875 1.125 4.17188 1.73438 2.95312 2.95312C1.73438 4.17188 1.125 5.6875 1.125 7.5C1.125 9.3125 1.73438 10.8281 2.95312 12.0469C4.17188 13.2656 5.6875 13.875 7.5 13.875Z" fill="#3B5998"/>
</svg>
