<svg width="14" height="16" viewBox="0 0 14 16" fill="none" xmlns="http://www.w3.org/2000/svg">
<path d="M12.4444 1.6H11.6667V0.8C11.6667 0.36 11.3167 0 10.8889 0C10.4611 0 10.1111 0.36 10.1111 0.8V1.6H3.88889V0.8C3.88889 0.36 3.53889 0 3.11111 0C2.68333 0 2.33333 0.36 2.33333 0.8V1.6H1.55556C0.692222 1.6 0.00777777 2.32 0.00777777 3.2L0 14.4C0 15.28 0.692222 16 1.55556 16H12.4444C13.3 16 14 15.28 14 14.4V3.2C14 2.32 13.3 1.6 12.4444 1.6ZM12.4444 13.6C12.4444 14.04 12.0944 14.4 11.6667 14.4H2.33333C1.90556 14.4 1.55556 14.04 1.55556 13.6V5.6H12.4444V13.6ZM3.11111 7.2H4.66667V8.8H3.11111V7.2ZM6.22222 7.2H7.77778V8.8H6.22222V7.2ZM9.33333 7.2H10.8889V8.8H9.33333V7.2Z" fill="#888888"/>
</svg>
