<svg width="56" height="56" viewBox="0 0 56 56" fill="none" xmlns="http://www.w3.org/2000/svg">
<circle cx="28" cy="28" r="28" fill="#DBE7FF"/>
<path d="M25.9787 16.0741C25.712 16.2117 25.7292 16.1816 24.6539 18.2032L24.0646 19.3043V21.0763V22.8484L23.4109 22.8355L22.7528 22.8226L22.7399 21.386C22.7356 20.414 22.7141 19.9279 22.684 19.8892C22.6195 19.8161 19.7162 19.8075 19.3678 19.8806C18.7097 20.0226 18.1893 20.543 18.0473 21.2011C18.0129 21.3645 18 23.3387 18 28.1689C18 35.5368 17.9914 35.2099 18.2495 35.769C18.4215 36.1346 18.8302 36.5604 19.1914 36.7497C19.742 37.0336 19.1785 37.0121 26.7744 37.0379L33.7207 37.0594L33.7336 38.4744C33.7379 39.4594 33.7594 39.9067 33.7938 39.9497C33.8325 39.997 34.1336 40.0057 35.5229 39.997L37.2046 39.9841L37.4541 39.868C37.9444 39.6358 38.3315 39.1454 38.4305 38.625C38.4563 38.4873 38.4735 35.8766 38.4735 31.6657C38.4735 24.2592 38.4864 24.6248 38.2068 24.0656C37.9745 23.5882 37.3939 23.085 36.8949 22.9258C36.8003 22.8957 36.3487 22.8613 35.8283 22.8484L34.925 22.8226L34.9121 19.472C34.9078 17.0849 34.8906 16.1042 34.8562 16.0612C34.7831 15.9795 30.2067 15.9795 30.1336 16.0612C30.0991 16.1042 30.0819 17.0849 30.0776 19.472L30.0647 22.8226H29.2905H28.5163L28.4948 21.0161L28.4733 19.2096L27.669 17.7343C27.226 16.9257 26.8346 16.2332 26.8002 16.1945C26.6195 16.0139 26.2109 15.9537 25.9787 16.0741ZM26.5335 16.5128C26.5765 16.5515 26.6883 16.7365 26.7787 16.9171L26.9464 17.2526H26.2754H25.6088L25.7894 16.9171C25.8883 16.7365 25.9916 16.5601 26.0174 16.5257C26.1292 16.3795 26.3787 16.3752 26.5335 16.5128ZM34.5164 19.6182V22.8441L32.5078 22.8355L30.4948 22.8226L30.4819 22.3581L30.469 21.8978H31.4798C32.0347 21.8978 32.5207 21.8849 32.5551 21.872C32.6669 21.829 32.7185 21.6957 32.6669 21.5968C32.6239 21.515 32.5766 21.5107 31.6131 21.5107C31.0626 21.5107 30.5809 21.4978 30.5422 21.4849C30.4862 21.4634 30.4733 21.3774 30.4733 20.9903V20.5215H31.1013C31.7637 20.5215 31.8927 20.4914 31.8927 20.3365C31.8927 20.1516 31.8282 20.1344 31.1314 20.1344H30.4733V19.6613V19.1881H31.5056C32.482 19.1881 32.5422 19.1838 32.6239 19.1021C32.7271 18.9989 32.7271 18.9731 32.654 18.8698C32.6024 18.7967 32.5035 18.7924 31.5443 18.7838L30.4948 18.7795L30.4819 18.2935L30.469 17.8118H31.097C31.7637 17.8118 31.8927 17.7817 31.8927 17.6268C31.8927 17.4419 31.8282 17.4247 31.1314 17.4247H30.4733V16.9085V16.3924H32.4949H34.5164V19.6182ZM27.5529 18.3623C27.7636 18.7451 27.9357 19.0806 27.9357 19.1021C27.9357 19.1279 27.3163 19.1451 26.2797 19.1451C25.3679 19.1451 24.6238 19.1322 24.6238 19.1193C24.6238 19.0892 24.9679 18.4311 25.2561 17.9064L25.4066 17.6397L26.2883 17.6483L27.1744 17.6612L27.5529 18.3623ZM25.3894 21.1753L25.3765 22.8226H24.9249H24.4733L24.4603 21.1753L24.4517 19.5322H24.9249H25.398L25.3894 21.1753ZM26.7658 21.1753L26.7529 22.8226H26.2797H25.8066L25.7937 21.1753L25.7851 19.5322H26.2797H26.7744L26.7658 21.1753ZM28.0991 21.1753L28.0862 22.8226H27.6346H27.183L27.1701 21.1753L27.1615 19.5322H27.6346H28.1077L28.0991 21.1753ZM22.3442 21.5323V22.8441H21.0108C20.1936 22.8441 19.5958 22.8269 19.4538 22.7968C18.6925 22.6333 18.2581 21.9021 18.4689 21.1365C18.5291 20.9129 18.7441 20.6247 18.9721 20.4656C19.2818 20.2505 19.4452 20.229 20.9592 20.2247L22.3442 20.2204V21.5323ZM18.6538 22.8441C18.7785 22.9387 18.9893 23.0592 19.1183 23.1151L19.3549 23.2097L28.0217 23.2312L36.6885 23.2527L36.981 23.3903C37.5315 23.6527 37.9444 24.2076 38.0434 24.8226C38.0907 25.1323 38.1079 37.1325 38.0606 37.1798C38.0434 37.197 37.953 37.1368 37.8584 37.0551C37.7638 36.969 37.5788 36.8486 37.4455 36.7841L37.2046 36.6723L28.5378 36.6508C20.5807 36.6293 19.8581 36.625 19.6947 36.5561C19.3721 36.4271 19.2345 36.3411 19.0022 36.126C18.7441 35.8809 18.6022 35.6572 18.4904 35.3174C18.4129 35.0937 18.4086 34.7884 18.3957 28.8743C18.3914 25.4635 18.3957 22.6721 18.4086 22.6721C18.4172 22.6721 18.5291 22.7495 18.6538 22.8441ZM37.3853 37.2056C38.3143 37.7088 38.2756 39.0207 37.3208 39.4981C37.1229 39.597 37.0885 39.597 35.6261 39.6099L34.1293 39.6229V38.3282V37.0336L35.6261 37.0465L37.1186 37.0594L37.3853 37.2056Z" fill="#203A72"/>
<path d="M22.826 25.2189C22.7873 25.2576 22.7744 26.3673 22.7744 29.9502C22.7744 34.5309 22.7744 34.6298 22.8561 34.6728C22.9121 34.6986 23.6475 34.7158 24.9551 34.7158C26.71 34.7158 26.9809 34.7072 27.067 34.647C27.1745 34.5739 27.1917 34.4491 27.1014 34.376C27.0584 34.3373 26.5078 34.3201 25.1099 34.3158L23.183 34.3072L23.1701 33.004L23.1615 31.705H23.9744C24.6583 31.705 24.8003 31.6921 24.8562 31.6362C24.8949 31.6018 24.925 31.5373 24.925 31.4943C24.925 31.3308 24.8476 31.3179 23.9916 31.3179H23.1615V28.4362V25.5544H24.5594H25.9573V27.2748V28.9953H25.3293C24.6669 28.9953 24.5379 29.0254 24.5379 29.1803C24.5379 29.3824 24.5422 29.3824 26.3229 29.3824C28.0906 29.3824 28.1078 29.3824 28.1078 29.1889C28.1078 29.0082 28.0476 28.9953 27.1745 28.9953H26.3444V27.2748V25.5544H27.7035C28.5551 25.5544 29.0885 25.5372 29.1444 25.5114C29.2347 25.4598 29.2519 25.2963 29.1745 25.2189C29.1014 25.1458 22.8991 25.1458 22.826 25.2189Z" fill="#203A72"/>
<path d="M31.3851 25.2189C31.3077 25.2963 31.3249 25.4598 31.4152 25.5114C31.4668 25.5372 31.8625 25.5544 32.4045 25.5544H33.312V27.2748V28.9953H31.7636H30.2152L30.1679 29.0985C30.1335 29.1716 30.1335 29.2233 30.1679 29.2921C30.2195 29.3824 30.2324 29.3824 31.7636 29.3824H33.312V31.8556V34.333L31.4539 34.3201L29.5915 34.3072L29.5786 33.004L29.57 31.705H30.7055C31.8152 31.705 31.8453 31.7007 31.9098 31.6147C31.9743 31.5201 31.9571 31.4082 31.8754 31.3523C31.8496 31.3351 30.7141 31.3179 29.355 31.3179C27.484 31.3179 26.8646 31.3308 26.8259 31.3695C26.7571 31.4384 26.7614 31.5975 26.8302 31.6577C26.8689 31.6878 27.2732 31.7093 28.0259 31.7136L29.1614 31.7265L29.1743 33.1631C29.1829 34.4664 29.1915 34.604 29.2603 34.6556C29.3162 34.7029 29.7593 34.7115 31.4066 34.7158C32.6539 34.7158 33.5228 34.6986 33.5873 34.6728L33.6991 34.6298V29.9674C33.6991 27.4039 33.6862 25.2748 33.6733 25.2361C33.6518 25.1759 33.5099 25.1673 32.5421 25.1673C31.7378 25.1673 31.4238 25.1802 31.3851 25.2189Z" fill="#203A72"/>
</svg>
