<svg width="69" height="75" viewBox="0 0 69 75" fill="none" xmlns="http://www.w3.org/2000/svg">
<circle cx="28" cy="4.99988" r="4" fill="#9CBCFF"/>
<rect x="17" y="4.99988" width="21" height="11" fill="#9CBCFF"/>
<circle cx="53" cy="42.9999" r="15" fill="#ECFFC5"/>
<rect x="13" y="22.9999" width="6" height="6" fill="#FFF0BC"/>
<rect x="13" y="33.9999" width="6" height="6" fill="#FF8159"/>
<rect x="13" y="44.9999" width="6" height="6" fill="#FFF0BC"/>
<rect x="13" y="55.9999" width="6" height="6" fill="#FFF0BC"/>
<path d="M25.5756 0.321312C24.4253 0.810799 23.2995 2.08347 22.8345 3.42955C22.5699 4.14998 21.8839 4.62879 21.1164 4.62879H11.2092H2C0.895429 4.62879 0 5.52422 0 6.62879V39.7494V72.87C0 73.9746 0.895431 74.87 2 74.87H27.9007H53.8014C54.9059 74.87 55.8014 73.9746 55.8014 72.87V68.6291V63.2447C55.8014 62.7716 55.4179 62.3881 54.9448 62.3881C54.4717 62.3881 54.0882 62.7716 54.0882 63.2447V67.7725V71.1639C54.0882 72.2657 53.1971 73.16 52.0953 73.1639L47.1864 73.1813C36.6135 73.2302 22.9814 73.2547 11.8211 73.2057L3.70351 73.1664C2.60274 73.1611 1.7132 72.2672 1.7132 71.1665V39.627V8.09724C1.7132 6.99268 2.60863 6.09724 3.7132 6.09724H9.05548H14.4161C15.5135 6.09724 16.4059 6.98148 16.416 8.07881L16.4467 11.4082L16.493 14.7711C16.508 15.8648 17.399 16.7436 18.4928 16.7436H27.9007H37.2614C38.3737 16.7436 39.2723 15.8361 39.2613 14.7239L39.2323 11.7753C39.2078 9.05864 39.2323 6.66016 39.3057 6.46436C39.4281 6.14619 40.5049 6.09724 46.7704 6.09724H52.0882C53.1927 6.09724 54.0882 6.99268 54.0882 8.09724V14.908V22.8621C54.0882 23.3352 54.4717 23.7187 54.9448 23.7187C55.4179 23.7187 55.8014 23.3352 55.8014 22.8621V14.1738V6.62006C55.8014 5.51891 54.9113 4.62489 53.8101 4.62008L44.6166 4.57984L34.2758 4.51196C33.7739 4.50867 33.3327 4.17905 33.1871 3.69877C32.8934 2.64637 31.2047 0.737381 30.1768 0.321312C29.1733 -0.119225 26.5546 -0.0947495 25.5756 0.321312ZM29.6139 1.98557C30.8131 2.59743 31.8166 4.16378 31.8166 5.41196C31.8166 5.79044 32.1234 6.09724 32.5019 6.09724H34.7535H35.6904C36.795 6.09724 37.6904 6.99268 37.6904 8.09724V10.625V13.1527C37.6904 14.2573 36.795 15.1527 35.6904 15.1527H27.9007H20.111C19.0064 15.1527 18.111 14.2573 18.111 13.1527V10.625V8.09725C18.111 6.99268 19.0064 6.09724 20.111 6.09724H21.0479H23.2995C23.678 6.09724 23.9848 5.79044 23.9848 5.41196C23.9848 4.16378 24.9882 2.59743 26.1875 1.98557C26.7749 1.69188 27.558 1.44714 27.9007 1.44714C28.2433 1.44714 29.0265 1.69188 29.6139 1.98557Z" fill="black"/>
<path d="M21.9535 9.91595C21.8556 10.0138 21.7822 10.4054 21.7822 10.797V11.4823H27.9253H34.0438L33.9704 10.6746L33.897 9.89147L27.9987 9.81805C24.7681 9.79357 22.0514 9.84252 21.9535 9.91595Z" fill="black"/>
<path d="M5.13965 39.6271V67.7305C5.13965 68.835 6.03508 69.7305 7.13965 69.7305H27.9007H48.6618C49.7664 69.7305 50.6618 68.835 50.6618 67.7305V66.0593V63.2448C50.6618 62.7717 50.2783 62.3882 49.8052 62.3882C49.3321 62.3882 48.9486 62.7717 48.9486 63.2448V65.3251V66.262C48.9486 67.3666 48.0532 68.262 46.9486 68.262H27.9007H8.85285C7.74828 68.262 6.85285 67.3666 6.85285 66.262V59.9897C6.82837 55.462 6.82837 50.5182 6.82837 49.0497C6.82837 47.5568 6.82837 38.4523 6.82837 28.8095L6.8501 13.2105C6.85162 12.1163 7.73217 11.2265 8.82629 11.2134L10.9645 11.188L14.2409 11.1291C14.7023 11.1208 15.0834 10.7665 15.1252 10.3069C15.1645 9.88672 14.834 9.52372 14.412 9.52372H10.1814H7.13965C6.03508 9.52372 5.13965 10.4192 5.13965 11.5237V39.6271Z" fill="black"/>
<path d="M40.676 10.3067C40.7177 10.7663 41.0989 11.1206 41.5602 11.1288L44.8611 11.1878L46.9722 11.2131C48.0674 11.2262 48.9483 12.1177 48.9483 13.2129V17.4777V22.862C48.9483 23.3351 49.3318 23.7186 49.8049 23.7186C50.278 23.7186 50.6615 23.3351 50.6615 22.862V16.6211V11.5235C50.6615 10.419 49.766 9.52354 48.6615 9.52354H45.6198H41.3892C40.9671 9.52354 40.6366 9.88654 40.676 10.3067Z" fill="black"/>
<path d="M11.7471 25.9209V28.8368C11.7471 29.3891 12.1948 29.8368 12.7471 29.8368H15.663H18.5788C19.1311 29.8368 19.5788 29.3891 19.5788 28.8368V25.9209V23.005C19.5788 22.4527 19.1311 22.005 18.5788 22.005H15.663H12.7471C12.1948 22.005 11.7471 22.4527 11.7471 23.005V25.9209ZM17.8656 25.9209V27.1236C17.8656 27.6759 17.4179 28.1236 16.8656 28.1236H15.663H14.4603C13.908 28.1236 13.4603 27.6759 13.4603 27.1236V25.9209V24.7182C13.4603 24.1659 13.908 23.7182 14.4603 23.7182H15.663H16.8656C17.4179 23.7182 17.8656 24.1659 17.8656 24.7182V25.9209Z" fill="black"/>
<path d="M24.7188 25.9209C24.7188 26.3264 25.0475 26.6552 25.453 26.6552H34.3861H43.3192C43.7247 26.6552 44.0534 26.3264 44.0534 25.9209C44.0534 25.5154 43.7247 25.1867 43.3192 25.1867H34.3861H25.453C25.0475 25.1867 24.7188 25.5154 24.7188 25.9209Z" fill="black"/>
<path d="M48.9482 27.5375C41.4346 29.5444 36.3929 36.3972 36.76 44.0332C37.1027 50.6902 41.1899 56.1969 47.5532 58.522C56.1681 61.6791 66.1047 56.4172 68.5276 47.3862C69.2374 44.7674 69.1395 40.5823 68.2829 38.2328C67.1326 34.9532 64.8565 31.9429 62.1643 30.1073C58.8603 27.8802 56.5108 27.1459 52.7417 27.1704C51.3956 27.1704 49.6824 27.3417 48.9482 27.5375ZM56.6331 29.2752C65.1012 31.38 69.7514 40.9984 66.2026 49.0504C65.346 50.9839 63.437 53.5292 62.042 54.5816C58.9827 56.8822 55.9479 57.8367 52.1299 57.6898C49.8538 57.5919 49.2909 57.4696 47.235 56.613C45.1057 55.7564 44.7386 55.5116 42.8296 53.5782C39.599 50.3476 38.4243 47.6064 38.4243 43.1766C38.4243 38.7467 39.9906 35.3938 43.5639 32.1387C46.7945 29.2018 51.8607 28.076 56.6331 29.2752Z" fill="black"/>
<path d="M55.8752 42.1234L50.6957 47.3029C50.3007 47.698 49.6586 47.6927 49.27 47.2913L47.04 44.9869C44.1031 41.9766 44.1031 41.9521 43.5892 42.4171C43.2955 42.6863 43.0752 43.0045 43.0752 43.1514C43.0752 43.3227 44.6415 44.9625 46.5261 46.8225L49.2945 49.5129C49.6865 49.8939 50.3119 49.8895 50.6985 49.5029L56.4626 43.7387L62.373 37.8283C62.6752 37.5261 62.6698 37.0345 62.3609 36.7391C62.0304 36.4499 61.5322 36.4665 61.2217 36.777L55.8752 42.1234Z" fill="black"/>
<path d="M11.7471 37.3021V40.0956C11.7471 40.6479 12.1948 41.0956 12.7471 41.0956H15.663H18.5788C19.1311 41.0956 19.5788 40.6479 19.5788 40.0956V37.3021V34.5086C19.5788 33.9563 19.1311 33.5086 18.5788 33.5086H15.663H12.7471C12.1948 33.5086 11.7471 33.9563 11.7471 34.5086V37.3021ZM17.8656 37.4244V38.6271C17.8656 39.1794 17.4179 39.6271 16.8656 39.6271H15.663H14.4603C13.908 39.6271 13.4603 39.1794 13.4603 38.6271V37.4244V36.2218C13.4603 35.6695 13.908 35.2218 14.4603 35.2218H15.663H16.8656C17.4179 35.2218 17.8656 35.6695 17.8656 36.2218V37.4244Z" fill="black"/>
<path d="M24.7188 37.3025C24.7188 37.7755 25.1023 38.1591 25.5753 38.1591H29.9807H34.3861C34.8592 38.1591 35.2427 37.7755 35.2427 37.3025C35.2427 36.8294 34.8592 36.4459 34.3861 36.4459H29.9807H25.5753C25.1023 36.4459 24.7188 36.8294 24.7188 37.3025Z" fill="black"/>
<path d="M11.796 48.805L11.778 51.5921C11.7744 52.1469 12.2232 52.5985 12.778 52.5985H15.6629H18.5478C19.1026 52.5985 19.5514 52.1469 19.5478 51.5921L19.5298 48.805L19.5118 46.005C19.5082 45.4553 19.0616 45.0115 18.5118 45.0115H15.6629H12.8321C12.2848 45.0115 11.8392 45.4514 11.8322 45.9986L11.796 48.805ZM17.939 46.9694C18.0124 47.2631 18.0124 48.291 17.939 49.27L17.8699 50.1222C17.8265 50.6577 17.3677 51.0632 16.831 51.0405L16.0545 51.0077C15.1 50.9832 14.1455 50.9343 13.9252 50.9098C13.6071 50.8853 13.4847 50.4937 13.3623 49.1721C13.0931 46.5044 13.0931 46.4799 15.6629 46.4799C17.6208 46.4799 17.8166 46.5289 17.939 46.9694Z" fill="black"/>
<path d="M24.7188 48.8054C24.7188 49.2785 25.1023 49.662 25.5753 49.662H29.9807H34.3861C34.8592 49.662 35.2427 49.2785 35.2427 48.8054C35.2427 48.3323 34.8592 47.9488 34.3861 47.9488H29.9807H25.5753C25.1023 47.9488 24.7188 48.3323 24.7188 48.8054Z" fill="black"/>
<path d="M11.7471 60.1856V63.1014C11.7471 63.6537 12.1948 64.1014 12.7471 64.1014H15.663H18.5788C19.1311 64.1014 19.5788 63.6537 19.5788 63.1014V60.1856V57.2697C19.5788 56.7174 19.1311 56.2697 18.5788 56.2697H15.663H12.7471C12.1948 56.2697 11.7471 56.7174 11.7471 57.2697V60.1856ZM17.8656 60.1856V61.3882C17.8656 61.9405 17.4179 62.3882 16.8656 62.3882H15.663H14.4603C13.908 62.3882 13.4603 61.9405 13.4603 61.3882V60.1856V58.9829C13.4603 58.4306 13.908 57.9829 14.4603 57.9829H15.663H16.8656C17.4179 57.9829 17.8656 58.4306 17.8656 58.9829V60.1856Z" fill="black"/>
<path d="M24.7188 60.1856C24.7188 60.5911 25.0475 60.9198 25.453 60.9198H34.3861H43.3192C43.7247 60.9198 44.0534 60.5911 44.0534 60.1856C44.0534 59.7801 43.7247 59.4513 43.3192 59.4513H34.3861H25.453C25.0475 59.4513 24.7188 59.7801 24.7188 60.1856Z" fill="black"/>
</svg>
