<svg width="18" height="18" viewBox="0 0 18 18" fill="none" xmlns="http://www.w3.org/2000/svg">
<path d="M15.6666 2.33329V12.3333H5.66663V2.33329H15.6666ZM15.6666 0.666626H5.66663C4.74996 0.666626 3.99996 1.41663 3.99996 2.33329V12.3333C3.99996 13.25 4.74996 14 5.66663 14H15.6666C16.5833 14 17.3333 13.25 17.3333 12.3333V2.33329C17.3333 1.41663 16.5833 0.666626 15.6666 0.666626ZM8.58329 8.72496L9.99163 10.6083L12.0583 8.02496L14.8333 11.5H6.49996L8.58329 8.72496ZM0.666626 3.99996V15.6666C0.666626 16.5833 1.41663 17.3333 2.33329 17.3333H14V15.6666H2.33329V3.99996H0.666626Z" fill="#888888"/>
</svg>
