<svg width="285" height="46" viewBox="0 0 285 46" fill="none" xmlns="http://www.w3.org/2000/svg">
<path d="M0.417801 45.0068C0.145415 45.0522 -0.0385945 45.3098 0.00680304 45.5822C0.0522006 45.8546 0.309814 46.0386 0.582199 45.9932L0.417801 45.0068ZM37.8242 37.971L37.7364 37.4788L37.8242 37.971ZM87 28L87.2985 28.4011L87 28ZM92.1965 2.87097L92.4658 2.44968L92.1965 2.87097ZM76.9428 2.54293L77.2201 2.95896L76.9428 2.54293ZM69.2339 16.4846L69.7281 16.5606L69.2339 16.4846ZM165.513 26.8998L165.351 26.4268L165.513 26.8998ZM198.809 18.7808L198.777 18.2818L198.809 18.7808ZM233.909 22.8813L233.778 23.3639L233.909 22.8813ZM284.354 31.8536C284.549 31.6583 284.549 31.3417 284.354 31.1464L281.172 27.9645C280.976 27.7692 280.66 27.7692 280.464 27.9645C280.269 28.1597 280.269 28.4763 280.464 28.6716L283.293 31.5L280.464 34.3284C280.269 34.5237 280.269 34.8403 280.464 35.0355C280.66 35.2308 280.976 35.2308 281.172 35.0355L284.354 31.8536ZM2.46373 45.6705C2.73569 45.6226 2.9173 45.3633 2.86938 45.0913C2.82146 44.8194 2.56215 44.6378 2.2902 44.6857L2.46373 45.6705ZM6.02647 43.9953C5.75532 44.0476 5.57787 44.3098 5.63013 44.5809C5.68239 44.8521 5.94457 45.0295 6.21572 44.9772L6.02647 43.9953ZM9.95586 44.2316C10.2264 44.1761 10.4006 43.9118 10.3451 43.6413C10.2896 43.3708 10.0253 43.1965 9.75478 43.2521L9.95586 44.2316ZM13.4777 42.4713C13.2076 42.5289 13.0354 42.7946 13.0931 43.0646C13.1507 43.3347 13.4163 43.5069 13.6864 43.4493L13.4777 42.4713ZM17.4104 42.6463C17.6803 42.5877 17.8516 42.3214 17.793 42.0516C17.7344 41.7817 17.4681 41.6104 17.1983 41.669L17.4104 42.6463ZM20.919 40.861C20.6492 40.9194 20.4778 41.1856 20.5362 41.4555C20.5947 41.7254 20.8608 41.8968 21.1307 41.8383L20.919 40.861ZM24.8515 41.0392C25.1216 40.9818 25.2941 40.7164 25.2367 40.4462C25.1794 40.1761 24.9139 40.0037 24.6438 40.061L24.8515 41.0392ZM28.3745 39.2813C28.104 39.3368 27.9297 39.6011 27.9852 39.8716C28.0407 40.1421 28.3049 40.3164 28.5754 40.2609L28.3745 39.2813ZM32.3043 39.5131C32.5753 39.4601 32.752 39.1974 32.699 38.9264C32.646 38.6554 32.3833 38.4787 32.1123 38.5317L32.3043 39.5131ZM35.858 37.8196C35.5865 37.8696 35.4069 38.1304 35.457 38.4019C35.5071 38.6735 35.7678 38.8531 36.0394 38.803L35.858 37.8196ZM39.9872 38.1137C40.2599 38.0703 40.4459 37.8141 40.4025 37.5414C40.3592 37.2687 40.103 37.0827 39.8302 37.1261L39.9872 38.1137ZM44.0309 36.5301C43.7569 36.5647 43.5629 36.8148 43.5975 37.0888C43.6321 37.3628 43.8822 37.5568 44.1562 37.5222L44.0309 36.5301ZM48.3426 37.0469C48.6173 37.0188 48.8172 36.7733 48.7891 36.4986C48.761 36.2239 48.5155 36.024 48.2408 36.0521L48.3426 37.0469ZM52.4562 35.6547C52.1811 35.6789 51.9777 35.9215 52.0018 36.1966C52.026 36.4716 52.2686 36.6751 52.5437 36.6509L52.4562 35.6547ZM56.7524 36.2937C57.0276 36.2707 57.232 36.0289 57.2089 35.7537C57.1859 35.4786 56.9441 35.2742 56.6689 35.2972L56.7524 36.2937ZM60.8759 34.9327C60.6009 34.9579 60.3984 35.2012 60.4236 35.4762C60.4489 35.7512 60.6922 35.9537 60.9672 35.9285L60.8759 34.9327ZM65.181 35.5007C65.4554 35.4694 65.6525 35.2216 65.6212 34.9473C65.5899 34.6729 65.3422 34.4758 65.0678 34.5071L65.181 35.5007ZM69.2395 33.9555C68.9666 33.9974 68.7794 34.2527 68.8214 34.5257C68.8634 34.7986 69.1187 34.9858 69.3916 34.9438L69.2395 33.9555ZM73.5779 34.178C73.8478 34.1196 74.0193 33.8535 73.9609 33.5836C73.9025 33.3137 73.6364 33.1422 73.3665 33.2006L73.5779 34.178ZM77.4137 32.1505C77.1498 32.2319 77.0019 32.5118 77.0834 32.7757C77.1648 33.0396 77.4448 33.1874 77.7086 33.106L77.4137 32.1505ZM81.723 31.6186C81.9757 31.5072 82.0902 31.2121 81.9788 30.9594C81.8674 30.7067 81.5722 30.5922 81.3196 30.7036L81.723 31.6186ZM84.9899 28.7682C84.7558 28.9147 84.685 29.2233 84.8315 29.4573C84.9781 29.6913 85.2867 29.7622 85.5207 29.6156L84.9899 28.7682ZM88.8116 27.1992C89.0223 27.0207 89.0485 26.7052 88.87 26.4945C88.6916 26.2837 88.3761 26.2576 88.1654 26.436L88.8116 27.1992ZM90.8619 23.847C90.6752 24.0504 90.6887 24.3667 90.8921 24.5535C91.0955 24.7403 91.4117 24.7268 91.5985 24.5234L90.8619 23.847ZM94.0195 21.5082C94.1771 21.2815 94.121 20.9699 93.8943 20.8123C93.6675 20.6547 93.356 20.7107 93.1984 20.9375L94.0195 21.5082ZM95.0755 17.7281C94.9568 17.9774 95.0626 18.2758 95.3119 18.3946C95.5612 18.5133 95.8596 18.4075 95.9783 18.1582L95.0755 17.7281ZM97.2868 14.4808C97.3491 14.2118 97.1815 13.9432 96.9124 13.8809C96.6434 13.8187 96.3748 13.9863 96.3126 14.2553L97.2868 14.4808ZM96.6126 10.6327C96.6349 10.908 96.8761 11.113 97.1513 11.0907C97.4266 11.0684 97.6316 10.8272 97.6093 10.552L96.6126 10.6327ZM96.527 6.72761C96.3998 6.48255 96.0979 6.38708 95.8529 6.51437C95.6078 6.64166 95.5123 6.94351 95.6396 7.18856L96.527 6.72761ZM93.3945 4.384C93.6029 4.56521 93.9187 4.54319 94.0999 4.33483C94.2812 4.12646 94.2591 3.81064 94.0508 3.62943L93.3945 4.384ZM90.6356 1.47084C90.3829 1.35938 90.0878 1.47383 89.9763 1.72647C89.8648 1.97912 89.9793 2.27429 90.2319 2.38575L90.6356 1.47084ZM86.5239 1.33152C86.797 1.3718 87.0512 1.183 87.0915 0.909811C87.1317 0.636623 86.9429 0.382502 86.6697 0.342216L86.5239 1.33152ZM82.5583 0.238036C82.2834 0.264201 82.0818 0.508263 82.108 0.783163C82.1341 1.05806 82.3782 1.2597 82.6531 1.23354L82.5583 0.238036ZM78.9025 2.09739C79.1595 1.99628 79.2858 1.706 79.1847 1.44904C79.0836 1.19207 78.7934 1.06572 78.5364 1.16683L78.9025 2.09739ZM74.9848 3.41719C74.7776 3.59973 74.7576 3.91568 74.9401 4.12288C75.1227 4.33008 75.4386 4.35007 75.6458 4.16753L74.9848 3.41719ZM73.0477 7.16004C73.2004 6.92999 73.1377 6.61967 72.9077 6.46693C72.6776 6.31419 72.3673 6.37687 72.2146 6.60692L73.0477 7.16004ZM70.2978 10.3505C70.1979 10.608 70.3257 10.8976 70.5832 10.9974C70.8406 11.0973 71.1303 10.9695 71.2301 10.7121L70.2978 10.3505ZM70.0933 14.5711C70.1515 14.3011 69.9799 14.0351 69.7099 13.9769C69.44 13.9187 69.174 14.0903 69.1158 14.3602L70.0933 14.5711ZM68.4678 18.5428C68.4404 18.8175 68.6409 19.0625 68.9157 19.0899C69.1905 19.1173 69.4355 18.9168 69.4629 18.642L68.4678 18.5428ZM69.3081 22.6922C69.2999 22.4161 69.0696 22.199 68.7936 22.2071C68.5175 22.2153 68.3004 22.4456 68.3085 22.7217L69.3081 22.6922ZM68.7764 26.8889C68.8318 27.1595 69.0961 27.3338 69.3666 27.2784C69.6371 27.2229 69.8115 26.9587 69.756 26.6882L68.7764 26.8889ZM70.9692 30.4854C70.8555 30.2337 70.5593 30.1219 70.3077 30.2356C70.056 30.3494 69.9442 30.6455 70.0579 30.8972L70.9692 30.4854ZM72.2863 34.5173C72.4602 34.7318 72.7751 34.7647 72.9896 34.5908C73.2041 34.4168 73.2369 34.102 73.063 33.8875L72.2863 34.5173ZM75.9483 36.6494C75.7274 36.4838 75.414 36.5286 75.2483 36.7495C75.0826 36.9704 75.1275 37.2838 75.3484 37.4495L75.9483 36.6494ZM78.9629 39.61C79.2125 39.7282 79.5106 39.6217 79.6289 39.3722C79.7471 39.1226 79.6407 38.8245 79.3911 38.7063L78.9629 39.61ZM83.175 40.1414C82.9104 40.0624 82.6318 40.2128 82.5528 40.4774C82.4738 40.742 82.6242 41.0206 82.8888 41.0996L83.175 40.1414ZM86.972 42.0584C87.2439 42.1069 87.5035 41.9258 87.552 41.6539C87.6005 41.3821 87.4194 41.1224 87.1476 41.0739L86.972 42.0584ZM91.2027 41.6103C90.9277 41.5854 90.6845 41.7881 90.6596 42.0631C90.6347 42.3382 90.8374 42.5813 91.1124 42.6062L91.2027 41.6103ZM95.2614 42.8378C95.5374 42.8444 95.7665 42.6259 95.7731 42.3498C95.7796 42.0738 95.5612 41.8447 95.2851 41.8381L95.2614 42.8378ZM99.3852 41.8223C99.1092 41.8304 98.8921 42.0608 98.9002 42.3368C98.9084 42.6128 99.1388 42.83 99.4148 42.8218L99.3852 41.8223ZM103.56 42.6059C103.836 42.5857 104.042 42.3461 104.022 42.0707C104.002 41.7953 103.763 41.5884 103.487 41.6086L103.56 42.6059ZM107.582 41.2315C107.308 41.2617 107.109 41.5087 107.14 41.7832C107.17 42.0577 107.417 42.2557 107.691 42.2255L107.582 41.2315ZM111.805 41.7074C112.078 41.6688 112.269 41.4159 112.23 41.1424C112.191 40.869 111.939 40.6786 111.665 40.7173L111.805 41.7074ZM115.734 40.0861C115.461 40.1319 115.278 40.3899 115.324 40.6622C115.37 40.9345 115.628 41.118 115.9 41.0722L115.734 40.0861ZM119.975 40.3359C120.246 40.2837 120.424 40.0216 120.372 39.7504C120.32 39.4793 120.057 39.3017 119.786 39.3539L119.975 40.3359ZM123.822 38.5337C123.552 38.5914 123.38 38.8571 123.438 39.1271C123.495 39.3972 123.761 39.5693 124.031 39.5116L123.822 38.5337ZM128.069 38.6092C128.338 38.5466 128.505 38.2778 128.443 38.0088C128.38 37.7399 128.111 37.5726 127.842 37.6353L128.069 38.6092ZM131.849 36.6669C131.581 36.7339 131.418 37.0054 131.485 37.2733C131.552 37.5412 131.824 37.704 132.092 37.637L131.849 36.6669ZM136.098 36.602C136.365 36.531 136.524 36.2571 136.453 35.9902C136.382 35.7234 136.108 35.5646 135.841 35.6357L136.098 36.602ZM139.819 34.5477C139.553 34.6223 139.398 34.8984 139.472 35.1642C139.547 35.4301 139.823 35.5851 140.089 35.5105L139.819 34.5477ZM144.064 34.3678C144.328 34.2899 144.48 34.012 144.402 33.7471C144.324 33.4822 144.046 33.3306 143.781 33.4085L144.064 34.3678ZM147.728 32.2231C147.464 32.304 147.315 32.5836 147.396 32.8476C147.477 33.1117 147.757 33.2601 148.021 33.1792L147.728 32.2231ZM151.962 31.9483C152.225 31.8647 152.371 31.5835 152.287 31.3204C152.204 31.0572 151.923 30.9117 151.659 30.9953L151.962 31.9483ZM155.603 29.7211C155.34 29.8072 155.197 30.0897 155.283 30.3521C155.37 30.6145 155.652 30.7574 155.914 30.6712L155.603 29.7211ZM159.848 29.3622C160.11 29.274 160.25 28.9903 160.162 28.7286C160.074 28.467 159.79 28.3263 159.528 28.4145L159.848 29.3622ZM163.413 27.0922C163.152 27.1818 163.013 27.4662 163.102 27.7274C163.192 27.9886 163.476 28.1277 163.737 28.0381L163.413 27.0922ZM167.71 26.6708C167.971 26.5804 168.109 26.2956 168.019 26.0347C167.928 25.7737 167.644 25.6355 167.383 25.7258L167.71 26.6708ZM171.448 24.3199C171.187 24.4095 171.048 24.6939 171.138 24.9551C171.227 25.2163 171.512 25.3554 171.773 25.2657L171.448 24.3199ZM175.842 23.9006C176.104 23.8152 176.248 23.5331 176.163 23.2705C176.077 23.0079 175.795 22.8643 175.533 22.9497L175.842 23.9006ZM179.655 21.6735C179.39 21.7508 179.238 22.0284 179.315 22.2935C179.392 22.5586 179.67 22.7109 179.935 22.6336L179.655 21.6735ZM184.066 21.5222C184.334 21.4565 184.498 21.1858 184.432 20.9176C184.367 20.6494 184.096 20.4852 183.828 20.5509L184.066 21.5222ZM188.053 19.6276C187.782 19.6796 187.604 19.9415 187.656 20.2128C187.708 20.484 187.97 20.6617 188.241 20.6097L188.053 19.6276ZM192.457 19.9168C192.731 19.8792 192.922 19.6269 192.884 19.3534C192.847 19.0798 192.595 18.8885 192.321 18.9261L192.457 19.9168ZM196.619 18.4451C196.344 18.4691 196.14 18.7115 196.164 18.9866C196.188 19.2617 196.431 19.4653 196.706 19.4413L196.619 18.4451ZM201.052 19.1577C201.327 19.145 201.541 18.9111 201.528 18.6353C201.516 18.3594 201.282 18.1461 201.006 18.1587L201.052 19.1577ZM205.467 18.0457C205.191 18.0467 204.968 18.2713 204.969 18.5475C204.97 18.8236 205.194 19.0467 205.47 19.0457L205.467 18.0457ZM209.885 19.1361C210.161 19.1487 210.395 18.9352 210.407 18.6594C210.42 18.3835 210.206 18.1497 209.931 18.1371L209.885 19.1361ZM214.386 18.4581C214.111 18.4309 213.866 18.6317 213.839 18.9065C213.812 19.1813 214.013 19.4261 214.287 19.4533L214.386 18.4581ZM218.667 20.0042C218.94 20.0457 219.195 19.858 219.237 19.585C219.278 19.312 219.09 19.0571 218.817 19.0155L218.667 20.0042ZM223.214 19.791C222.943 19.737 222.68 19.9128 222.626 20.1836C222.572 20.4544 222.747 20.7177 223.018 20.7717L223.214 19.791ZM227.339 21.7173C227.607 21.7808 227.877 21.6145 227.94 21.3458C228.004 21.077 227.838 20.8077 227.569 20.7441L227.339 21.7173ZM231.889 21.8252C231.622 21.7552 231.349 21.9149 231.279 22.1821C231.209 22.4492 231.368 22.7225 231.636 22.7925L231.889 21.8252ZM235.83 23.9175C236.097 23.9891 236.371 23.831 236.443 23.5643C236.514 23.2976 236.356 23.0234 236.089 22.9517L235.83 23.9175ZM240.193 24.0413C239.926 23.9713 239.652 24.1312 239.582 24.3983C239.512 24.6654 239.672 24.9387 239.939 25.0086L240.193 24.0413ZM244.059 26.0677C244.326 26.1351 244.598 25.9727 244.666 25.7049C244.733 25.4371 244.571 25.1654 244.303 25.0979L244.059 26.0677ZM248.423 26.1093C248.154 26.0452 247.884 26.211 247.82 26.4796C247.756 26.7482 247.922 27.0179 248.191 27.082L248.423 26.1093ZM252.338 28.0386C252.608 28.0985 252.875 27.9285 252.935 27.659C252.994 27.3894 252.825 27.1223 252.555 27.0624L252.338 28.0386ZM256.701 27.9444C256.431 27.8896 256.167 28.0645 256.112 28.3351C256.057 28.6058 256.232 28.8696 256.503 28.9245L256.701 27.9444ZM260.686 29.7261C260.958 29.7751 261.218 29.5944 261.267 29.3227C261.316 29.0509 261.135 28.7909 260.863 28.742L260.686 29.7261ZM265.041 29.4414C264.768 29.3993 264.513 29.5864 264.47 29.8594C264.428 30.1323 264.615 30.3876 264.888 30.4298L265.041 29.4414ZM269.11 31.0212C269.384 31.0555 269.634 30.8613 269.668 30.5873C269.702 30.3133 269.508 30.0633 269.234 30.029L269.11 31.0212ZM273.441 30.4904C273.166 30.4647 272.923 30.6667 272.897 30.9417C272.871 31.2166 273.073 31.4603 273.348 31.486L273.441 30.4904ZM277.602 31.8098C277.877 31.8259 278.114 31.6155 278.13 31.3398C278.146 31.0641 277.936 30.8276 277.66 30.8115L277.602 31.8098ZM281.886 30.9785C281.61 30.9729 281.381 31.1922 281.376 31.4683C281.37 31.7444 281.59 31.9727 281.866 31.9783L281.886 30.9785ZM0.582199 45.9932C1.21201 45.8882 1.83899 45.7806 2.46373 45.6705L2.2902 44.6857C1.66835 44.7953 1.04443 44.9024 0.417801 45.0068L0.582199 45.9932ZM6.21572 44.9772C7.46467 44.7365 8.70969 44.4874 9.95586 44.2316L9.75478 43.2521C8.51184 43.5072 7.27082 43.7555 6.02647 43.9953L6.21572 44.9772ZM13.6864 43.4493C14.9199 43.186 16.1597 42.9178 17.4104 42.6463L17.1983 41.669C15.948 41.9405 14.7095 42.2084 13.4777 42.4713L13.6864 43.4493ZM21.1307 41.8383C22.355 41.5732 23.5937 41.3063 24.8515 41.0392L24.6438 40.061C23.3842 40.3285 22.144 40.5957 20.919 40.861L21.1307 41.8383ZM28.5754 40.2609C29.7967 40.0104 31.0384 39.7607 32.3043 39.5131L32.1123 38.5317C30.8431 38.78 29.5983 39.0302 28.3745 39.2813L28.5754 40.2609ZM36.0394 38.803C36.6574 38.689 37.2815 38.5757 37.912 38.4633L37.7364 37.4788C37.1039 37.5916 36.4779 37.7052 35.858 37.8196L36.0394 38.803ZM37.912 38.4633C38.6053 38.3396 39.2971 38.2234 39.9872 38.1137L39.8302 37.1261C39.1342 37.2367 38.4362 37.354 37.7364 37.4788L37.912 38.4633ZM44.1562 37.5222C45.5614 37.3448 46.9575 37.1886 48.3426 37.0469L48.2408 36.0521C46.8495 36.1945 45.4454 36.3515 44.0309 36.5301L44.1562 37.5222ZM52.5437 36.6509C53.9619 36.5264 55.365 36.4099 56.7524 36.2937L56.6689 35.2972C55.2827 35.4133 53.877 35.53 52.4562 35.6547L52.5437 36.6509ZM60.9672 35.9285C62.3936 35.7976 63.7994 35.6581 65.181 35.5007L65.0678 34.5071C63.6957 34.6635 62.2976 34.8022 60.8759 34.9327L60.9672 35.9285ZM69.3916 34.9438C70.8184 34.7243 72.2152 34.4729 73.5779 34.178L73.3665 33.2006C72.0267 33.4905 70.6501 33.7384 69.2395 33.9555L69.3916 34.9438ZM77.7086 33.106C79.091 32.6793 80.4308 32.1883 81.723 31.6186L81.3196 30.7036C80.0667 31.256 78.7636 31.7338 77.4137 32.1505L77.7086 33.106ZM85.5207 29.6156C86.1273 29.2357 86.7201 28.8315 87.2985 28.4011L86.7015 27.5989C86.1451 28.0128 85.5744 28.402 84.9899 28.7682L85.5207 29.6156ZM87.2985 28.4011C87.8145 28.0172 88.3196 27.6158 88.8116 27.1992L88.1654 26.436C87.6892 26.8393 87.2006 27.2275 86.7015 27.5989L87.2985 28.4011ZM91.5985 24.5234C92.4825 23.5606 93.2956 22.5498 94.0195 21.5082L93.1984 20.9375C92.5014 21.9402 91.7169 22.9159 90.8619 23.847L91.5985 24.5234ZM95.9783 18.1582C96.557 16.9434 97.0024 15.7093 97.2868 14.4808L96.3126 14.2553C96.0466 15.4044 95.6272 16.57 95.0755 17.7281L95.9783 18.1582ZM97.6093 10.552C97.5016 9.22179 97.1536 7.93382 96.527 6.72761L95.6396 7.18856C96.2004 8.26811 96.5148 9.42543 96.6126 10.6327L97.6093 10.552ZM94.0508 3.62943C93.5733 3.2142 93.0456 2.82026 92.4658 2.44968L91.9272 3.29226C92.468 3.63794 92.9561 4.00273 93.3945 4.384L94.0508 3.62943ZM92.4658 2.44968C91.8767 2.0731 91.2638 1.74802 90.6356 1.47084L90.2319 2.38575C90.8157 2.64331 91.3832 2.94453 91.9272 3.29226L92.4658 2.44968ZM86.6697 0.342216C85.2742 0.136422 83.879 0.112334 82.5583 0.238036L82.6531 1.23354C83.8969 1.11515 85.2113 1.13795 86.5239 1.33152L86.6697 0.342216ZM78.5364 1.16683C77.8465 1.43828 77.2153 1.76028 76.6654 2.12691L77.2201 2.95896C77.7024 2.63745 78.2686 2.34683 78.9025 2.09739L78.5364 1.16683ZM76.6654 2.12691C76.0647 2.5274 75.5054 2.95857 74.9848 3.41719L75.6458 4.16753C76.133 3.73837 76.6568 3.33452 77.2201 2.95896L76.6654 2.12691ZM72.2146 6.60692C71.4369 7.77824 70.8073 9.0367 70.2978 10.3505L71.2301 10.7121C71.7171 9.45628 72.315 8.26355 73.0477 7.16004L72.2146 6.60692ZM69.1158 14.3602C68.9697 15.0377 68.8454 15.7216 68.7397 16.4085L69.7281 16.5606C69.831 15.8915 69.9518 15.2273 70.0933 14.5711L69.1158 14.3602ZM68.7397 16.4085C68.6275 17.1375 68.5371 17.8488 68.4678 18.5428L69.4629 18.642C69.5303 17.9665 69.6185 17.2728 69.7281 16.5606L68.7397 16.4085ZM68.3085 22.7217C68.3522 24.2032 68.5104 25.5909 68.7764 26.8889L69.756 26.6882C69.5025 25.4512 69.3503 24.1211 69.3081 22.6922L68.3085 22.7217ZM70.0579 30.8972C70.6599 32.2293 71.4073 33.4334 72.2863 34.5173L73.063 33.8875C72.2382 32.8704 71.536 31.7396 70.9692 30.4854L70.0579 30.8972ZM75.3484 37.4495C76.4498 38.2753 77.6595 38.9924 78.9629 39.61L79.3911 38.7063C78.1419 38.1144 76.9908 37.4311 75.9483 36.6494L75.3484 37.4495ZM82.8888 41.0996C84.1887 41.4878 85.5528 41.8053 86.972 42.0584L87.1476 41.0739C85.7614 40.8267 84.4345 40.5176 83.175 40.1414L82.8888 41.0996ZM91.1124 42.6062C92.4598 42.7284 93.8449 42.8042 95.2614 42.8378L95.2851 41.8381C93.8887 41.805 92.5259 41.7303 91.2027 41.6103L91.1124 42.6062ZM99.4148 42.8218C100.776 42.7816 102.159 42.7085 103.56 42.6059L103.487 41.6086C102.1 41.7102 100.731 41.7825 99.3852 41.8223L99.4148 42.8218ZM107.691 42.2255C109.052 42.076 110.425 41.9024 111.805 41.7074L111.665 40.7173C110.294 40.9109 108.932 41.0832 107.582 41.2315L107.691 42.2255ZM115.9 41.0722C117.256 40.8437 118.616 40.5974 119.975 40.3359L119.786 39.3539C118.434 39.6141 117.082 39.8589 115.734 40.0861L115.9 41.0722ZM124.031 39.5116C125.383 39.2227 126.73 38.9211 128.069 38.6092L127.842 37.6353C126.509 37.9458 125.167 38.2461 123.822 38.5337L124.031 39.5116ZM132.092 37.637C133.441 37.2992 134.778 36.9534 136.098 36.602L135.841 35.6357C134.525 35.9858 133.193 36.3304 131.849 36.6669L132.092 37.637ZM140.089 35.5105C141.438 35.1317 142.765 34.7498 144.064 34.3678L143.781 33.4085C142.486 33.7893 141.164 34.1701 139.819 34.5477L140.089 35.5105ZM148.021 33.1792C149.376 32.7637 150.692 32.3521 151.962 31.9483L151.659 30.9953C150.392 31.3981 149.08 31.8087 147.728 32.2231L148.021 33.1792ZM155.914 30.6712C157.304 30.215 158.619 29.7763 159.848 29.3622L159.528 28.4145C158.302 28.828 156.99 29.2658 155.603 29.7211L155.914 30.6712ZM163.737 28.0381C164.43 27.8005 165.078 27.5777 165.675 27.3727L165.351 26.4268C164.752 26.6322 164.106 26.8546 163.413 27.0922L163.737 28.0381ZM165.675 27.3727C166.364 27.1362 167.042 26.9021 167.71 26.6708L167.383 25.7258C166.715 25.957 166.038 26.1908 165.351 26.4268L165.675 27.3727ZM171.773 25.2657C173.152 24.7925 174.502 24.3363 175.842 23.9006L175.533 22.9497C174.186 23.3876 172.83 23.8457 171.448 24.3199L171.773 25.2657ZM179.935 22.6336C181.298 22.2362 182.669 21.8644 184.066 21.5222L183.828 20.5509C182.415 20.897 181.03 21.2727 179.655 21.6735L179.935 22.6336ZM188.241 20.6097C189.603 20.3489 191.003 20.1168 192.457 19.9168L192.321 18.9261C190.849 19.1286 189.431 19.3635 188.053 19.6276L188.241 20.6097ZM196.706 19.4413C197.404 19.3804 198.115 19.3265 198.841 19.2798L198.777 18.2818C198.043 18.329 197.324 18.3835 196.619 18.4451L196.706 19.4413ZM198.841 19.2798C199.592 19.2315 200.328 19.1909 201.052 19.1577L201.006 18.1587C200.276 18.1922 199.533 18.2332 198.777 18.2818L198.841 19.2798ZM205.47 19.0457C206.988 19.0403 208.455 19.071 209.885 19.1361L209.931 18.1371C208.484 18.0712 207.001 18.0402 205.467 18.0457L205.47 19.0457ZM214.287 19.4533C215.765 19.5995 217.218 19.7838 218.667 20.0042L218.817 19.0155C217.352 18.7927 215.881 18.6062 214.386 18.4581L214.287 19.4533ZM223.018 20.7717C224.439 21.055 225.874 21.3708 227.339 21.7173L227.569 20.7441C226.094 20.3953 224.648 20.077 223.214 19.791L223.018 20.7717ZM231.636 22.7925C232.339 22.977 233.053 23.1675 233.778 23.3639L234.04 22.3987C233.312 22.2017 232.596 22.0104 231.889 21.8252L231.636 22.7925ZM233.778 23.3639C234.461 23.5489 235.145 23.7335 235.83 23.9175L236.089 22.9517C235.405 22.768 234.722 22.5835 234.04 22.3987L233.778 23.3639ZM239.939 25.0086C241.309 25.3674 242.682 25.7211 244.059 26.0677L244.303 25.0979C242.93 24.7523 241.56 24.3993 240.193 24.0413L239.939 25.0086ZM248.191 27.082C249.57 27.4111 250.953 27.7308 252.338 28.0386L252.555 27.0624C251.175 26.7558 249.798 26.4373 248.423 26.1093L248.191 27.082ZM256.503 28.9245C257.894 29.2066 259.289 29.4746 260.686 29.7261L260.863 28.742C259.474 28.4918 258.087 28.2252 256.701 27.9444L256.503 28.9245ZM264.888 30.4298C266.293 30.6465 267.7 30.8444 269.11 31.0212L269.234 30.029C267.835 29.8534 266.437 29.6568 265.041 29.4414L264.888 30.4298ZM273.348 31.486C274.764 31.6183 276.182 31.727 277.602 31.8098L277.66 30.8115C276.252 30.7294 274.846 30.6216 273.441 30.4904L273.348 31.486ZM281.866 31.9783C282.577 31.9927 283.288 32 284 32V31C283.295 31 282.59 30.9927 281.886 30.9785L281.866 31.9783Z" fill="black"/>
</svg>
