<svg width="297" height="52" viewBox="0 0 297 52" fill="none" xmlns="http://www.w3.org/2000/svg">
<path d="M0.584482 30.0072C0.31231 29.9605 0.053847 30.1433 0.00718889 30.4155C-0.0394692 30.6877 0.143346 30.9462 0.415518 30.9928L0.584482 30.0072ZM122.995 9.10781L123.185 9.57046L122.995 9.10781ZM166.206 1.01913L166.202 1.51911L166.206 1.01913ZM186.747 3.0413L186.65 3.53192L186.747 3.0413ZM219.953 50.7219L219.877 51.2161L219.953 50.7219ZM189.5 25.9999L189.017 26.1305L189.021 26.1449L189.026 26.159L189.5 25.9999ZM296.191 12.8671C296.386 12.6719 296.386 12.3553 296.191 12.16L293.009 8.97803C292.814 8.78277 292.497 8.78277 292.302 8.97803C292.107 9.17329 292.107 9.48988 292.302 9.68514L295.13 12.5136L292.302 15.342C292.107 15.5373 292.107 15.8538 292.302 16.0491C292.497 16.2444 292.814 16.2444 293.009 16.0491L296.191 12.8671ZM2.39699 31.3215C2.66965 31.3653 2.92613 31.1797 2.96986 30.907C3.0136 30.6344 2.82802 30.3779 2.55536 30.3342L2.39699 31.3215ZM6.51248 30.9255C6.23895 30.8876 5.98649 31.0787 5.94859 31.3522C5.91069 31.6257 6.10171 31.8782 6.37523 31.9161L6.51248 30.9255ZM10.3676 32.4259C10.6419 32.458 10.8902 32.2616 10.9223 31.9874C10.9544 31.7131 10.758 31.4648 10.4837 31.4327L10.3676 32.4259ZM14.4649 31.8548C14.19 31.8287 13.946 32.0303 13.9198 32.3052C13.8936 32.5801 14.0953 32.8242 14.3702 32.8503L14.4649 31.8548ZM18.3808 33.1883C18.6562 33.2085 18.8958 33.0016 18.916 32.7262C18.9362 32.4508 18.7293 32.2112 18.4539 32.191L18.3808 33.1883ZM22.4493 32.4398C22.1735 32.4257 21.9385 32.6378 21.9243 32.9136C21.9102 33.1894 22.1223 33.4244 22.3981 33.4385L22.4493 32.4398ZM26.421 33.5995C26.697 33.6074 26.9272 33.3901 26.9351 33.1141C26.9431 32.838 26.7257 32.6078 26.4497 32.5999L26.421 33.5995ZM30.4538 32.6693C30.1776 32.6677 29.9525 32.8902 29.9509 33.1663C29.9493 33.4425 30.1718 33.6676 30.448 33.6693L30.4538 32.6693ZM34.4719 33.6457C34.748 33.6409 34.9679 33.4131 34.963 33.137C34.9582 32.8609 34.7304 32.641 34.4543 32.6459L34.4719 33.6457ZM38.4533 32.5277C38.1774 32.5392 37.963 32.7722 37.9745 33.0481C37.986 33.324 38.219 33.5383 38.4949 33.5269L38.4533 32.5277ZM42.5166 33.3101C42.7921 33.2918 43.0007 33.0537 42.9824 32.7781C42.9641 32.5026 42.726 32.294 42.4504 32.3123L42.5166 33.3101ZM46.4393 31.9974C46.1643 32.0226 45.9618 32.266 45.9871 32.541C46.0123 32.816 46.2556 33.0184 46.5306 32.9932L46.4393 31.9974ZM50.5344 32.5738C50.8086 32.5414 51.0047 32.2929 50.9724 32.0187C50.94 31.7444 50.6915 31.5483 50.4172 31.5807L50.5344 32.5738ZM54.3858 31.0591C54.1125 31.0987 53.9231 31.3524 53.9627 31.6257C54.0024 31.899 54.2561 32.0884 54.5294 32.0487L54.3858 31.0591ZM58.5049 31.4166C58.777 31.3695 58.9594 31.1108 58.9123 30.8387C58.8652 30.5666 58.6065 30.3842 58.3344 30.4313L58.5049 31.4166ZM62.2664 29.6938C61.9958 29.7486 61.8207 30.0124 61.8754 30.283C61.9302 30.5537 62.194 30.7287 62.4646 30.674L62.2664 29.6938ZM66.4005 29.8192C66.6695 29.7567 66.8369 29.488 66.7744 29.219C66.7119 28.9501 66.4432 28.7827 66.1742 28.8452L66.4005 29.8192ZM70.0558 27.8828C69.7888 27.9532 69.6294 28.2268 69.6999 28.4938C69.7703 28.7608 70.0438 28.9202 70.3108 28.8498L70.0558 27.8828ZM74.1364 27.7917C74.4021 27.7165 74.5565 27.4401 74.4812 27.1744C74.406 26.9087 74.1296 26.7543 73.8639 26.8296L74.1364 27.7917ZM77.5873 25.761C77.3222 25.8381 77.1698 26.1156 77.247 26.3808C77.3242 26.6459 77.6016 26.7983 77.8668 26.7211L77.5873 25.761ZM81.5779 25.6237C81.8423 25.5441 81.9922 25.2653 81.9126 25.0008C81.8331 24.7364 81.5543 24.5865 81.2898 24.666L81.5779 25.6237ZM84.9918 23.5306C84.7283 23.6132 84.5816 23.8937 84.6641 24.1572C84.7466 24.4207 85.0271 24.5675 85.2906 24.485L84.9918 23.5306ZM88.9866 23.3003C89.2489 23.2141 89.3917 22.9315 89.3055 22.6692C89.2193 22.4068 88.9368 22.264 88.6744 22.3502L88.9866 23.3003ZM92.3451 21.1102C92.0842 21.2009 91.9463 21.4858 92.037 21.7467C92.1277 22.0075 92.4127 22.1454 92.6735 22.0547L92.3451 21.1102ZM96.3285 20.7436C96.5875 20.6477 96.7197 20.3601 96.6238 20.1011C96.528 19.8421 96.2403 19.7099 95.9814 19.8058L96.3285 20.7436ZM99.593 18.4259C99.3361 18.5271 99.2098 18.8174 99.311 19.0744C99.4122 19.3313 99.7026 19.4576 99.9595 19.3564L99.593 18.4259ZM103.559 17.8998C103.814 17.7941 103.935 17.5016 103.829 17.2465C103.724 16.9914 103.431 16.8703 103.176 16.9761L103.559 17.8998ZM106.741 15.472C106.487 15.5807 106.369 15.8745 106.478 16.1284C106.586 16.3823 106.88 16.5001 107.134 16.3914L106.741 15.472ZM110.698 14.8567C110.951 14.7471 111.068 14.4529 110.958 14.1994C110.849 13.9459 110.555 13.8292 110.301 13.9387L110.698 14.8567ZM113.856 12.4059C113.602 12.5149 113.485 12.8089 113.594 13.0626C113.703 13.3164 113.997 13.4338 114.251 13.3248L113.856 12.4059ZM117.818 11.8045C118.073 11.697 118.192 11.4037 118.084 11.1493C117.977 10.8949 117.683 10.7759 117.429 10.8833L117.818 11.8045ZM121.011 9.38464C120.756 9.49031 120.635 9.78279 120.74 10.0379C120.846 10.293 121.138 10.4142 121.393 10.3085L121.011 9.38464ZM124.895 8.87933C125.152 8.77719 125.277 8.4864 125.175 8.22985C125.073 7.97329 124.782 7.84811 124.525 7.95026L124.895 8.87933ZM127.985 6.61887C127.726 6.71482 127.594 7.00251 127.69 7.26145C127.786 7.52039 128.074 7.65251 128.333 7.55656L127.985 6.61887ZM131.799 6.32858C132.06 6.24037 132.201 5.95673 132.113 5.69505C132.024 5.43338 131.741 5.29277 131.479 5.38098L131.799 6.32858ZM135.016 4.25664C134.751 4.33547 134.6 4.61392 134.679 4.87857C134.758 5.14322 135.036 5.29385 135.301 5.21502L135.016 4.25664ZM138.842 4.23712C139.11 4.16918 139.272 3.89712 139.204 3.62947C139.136 3.36182 138.864 3.19992 138.596 3.26787L138.842 4.23712ZM142.216 2.43321C141.946 2.48921 141.772 2.75381 141.828 3.02422C141.884 3.29462 142.149 3.46843 142.419 3.41243L142.216 2.43321ZM146.029 2.74969C146.302 2.70595 146.487 2.44947 146.443 2.17681C146.4 1.90415 146.143 1.71858 145.871 1.76232L146.029 2.74969ZM149.55 1.25389C149.276 1.2859 149.079 1.53419 149.111 1.80847C149.143 2.08276 149.392 2.27916 149.666 2.24715L149.55 1.25389ZM153.324 1.89266C153.599 1.87114 153.805 1.63052 153.783 1.35522C153.762 1.07991 153.521 0.87418 153.246 0.895696L153.324 1.89266ZM156.948 0.668006C156.672 0.680677 156.459 0.91457 156.472 1.19042C156.484 1.46627 156.718 1.67962 156.994 1.66695L156.948 0.668006ZM160.671 1.5474C160.947 1.54184 161.166 1.31353 161.161 1.03744C161.155 0.761353 160.927 0.542046 160.651 0.547604L160.671 1.5474ZM164.356 0.511721C164.08 0.511759 163.856 0.735648 163.856 1.01179C163.856 1.28793 164.08 1.51176 164.356 1.51172L164.356 0.511721ZM167.923 1.53906C168.199 1.54337 168.426 1.32304 168.431 1.04693C168.435 0.77082 168.215 0.543492 167.939 0.539178L167.923 1.53906ZM171.395 0.630604C171.119 0.619757 170.887 0.83465 170.876 1.11058C170.865 1.38651 171.08 1.61899 171.356 1.62983L171.395 0.630604ZM174.777 1.8226C175.053 1.84332 175.293 1.6369 175.314 1.36154C175.334 1.08618 175.128 0.846146 174.853 0.825417L174.777 1.8226ZM178.304 1.15902C178.029 1.12655 177.781 1.32253 177.748 1.59676C177.716 1.87099 177.912 2.11962 178.186 2.15208L178.304 1.15902ZM181.579 2.62306C181.852 2.66609 182.108 2.47986 182.151 2.20709C182.194 1.93432 182.008 1.67831 181.735 1.63528L181.579 2.62306ZM185.144 2.22508C184.873 2.17449 184.611 2.35355 184.561 2.62502C184.51 2.89649 184.689 3.15757 184.961 3.20815L185.144 2.22508ZM188.588 3.91107C188.859 3.964 189.121 3.78719 189.174 3.51617C189.227 3.24515 189.05 2.98254 188.779 2.92961L188.588 3.91107ZM192.644 3.69063C192.374 3.63634 192.11 3.81181 192.056 4.08257C192.001 4.35332 192.177 4.61682 192.448 4.67111L192.644 3.69063ZM196.291 5.47465C196.561 5.53412 196.828 5.36373 196.887 5.09407C196.947 4.8244 196.776 4.55759 196.507 4.49811L196.291 5.47465ZM200.353 5.41637C200.086 5.34671 199.812 5.50686 199.743 5.77408C199.673 6.04129 199.833 6.31437 200.101 6.38403L200.353 5.41637ZM203.853 7.47277C204.116 7.55774 204.398 7.41362 204.483 7.15087C204.568 6.88813 204.424 6.60625 204.161 6.52129L203.853 7.47277ZM207.894 7.87513C207.639 7.77156 207.347 7.89511 207.243 8.15109C207.14 8.40708 207.263 8.69855 207.519 8.80213L207.894 7.87513ZM211.076 10.399C211.324 10.5214 211.623 10.4199 211.746 10.1723C211.868 9.92478 211.767 9.6249 211.519 9.50254L211.076 10.399ZM215.017 11.3848C214.778 11.246 214.472 11.327 214.333 11.5658C214.195 11.8045 214.276 12.1105 214.514 12.2493L215.017 11.3848ZM217.836 14.3111C218.066 14.463 218.376 14.3991 218.528 14.1685C218.68 13.9379 218.616 13.6278 218.386 13.4759L217.836 14.3111ZM221.638 15.7258C221.414 15.564 221.101 15.6141 220.939 15.8378C220.777 16.0615 220.828 16.3741 221.051 16.536L221.638 15.7258ZM224.104 18.908C224.311 19.0915 224.627 19.0729 224.81 18.8665C224.994 18.6602 224.975 18.3441 224.769 18.1606L224.104 18.908ZM227.521 21.0077C227.344 20.7958 227.029 20.7676 226.817 20.9447C226.605 21.1218 226.577 21.4371 226.754 21.649L227.521 21.0077ZM229.003 24.7387C229.15 24.9721 229.459 25.0416 229.693 24.894C229.926 24.7464 229.996 24.4375 229.848 24.2041L229.003 24.7387ZM231.746 27.669C231.629 27.419 231.331 27.3115 231.081 27.4289C230.831 27.5462 230.724 27.844 230.841 28.094L231.746 27.669ZM232.245 31.6499C232.33 31.9127 232.612 32.057 232.874 31.9723C233.137 31.8876 233.282 31.6058 233.197 31.343L232.245 31.6499ZM234.15 35.186C234.103 34.9139 233.845 34.7314 233.573 34.7784C233.3 34.8254 233.118 35.0841 233.165 35.3562L234.15 35.186ZM233.501 39.1382C233.501 39.4143 233.725 39.6384 234.001 39.6387C234.277 39.639 234.501 39.4154 234.501 39.1393L233.501 39.1382ZM234.057 43.1108C234.121 42.8422 233.956 42.5724 233.687 42.5081C233.419 42.4438 233.149 42.6094 233.085 42.878L234.057 43.1108ZM231.665 46.3006C231.516 46.5328 231.583 46.8422 231.815 46.9917C232.047 47.1412 232.357 47.0742 232.506 46.842L231.665 46.3006ZM229.638 49.7267C229.87 49.5772 229.937 49.2678 229.787 49.0356C229.638 48.8034 229.328 48.7364 229.096 48.8859L229.638 49.7267ZM225.676 50.2235C225.405 50.2768 225.228 50.5395 225.281 50.8105C225.334 51.0815 225.597 51.258 225.868 51.2048L225.676 50.2235ZM221.86 51.4327C222.136 51.4498 222.373 51.2402 222.39 50.9645C222.407 50.6889 222.197 50.4517 221.922 50.4346L221.86 51.4327ZM218.022 49.8683C217.751 49.8129 217.487 49.9873 217.432 50.2578C217.376 50.5283 217.551 50.7925 217.821 50.8479L218.022 49.8683ZM213.782 49.8061C214.045 49.8886 214.326 49.7419 214.408 49.4783C214.491 49.2148 214.344 48.9343 214.081 48.8518L213.782 49.8061ZM210.266 47.4353C210.013 47.3257 209.719 47.4424 209.609 47.6959C209.5 47.9493 209.616 48.2436 209.87 48.3532L210.266 47.4353ZM206.131 46.4953C206.372 46.6312 206.677 46.5466 206.813 46.3062C206.948 46.0658 206.864 45.7608 206.623 45.6248L206.131 46.4953ZM203.195 43.4353C202.971 43.2743 202.659 43.3257 202.498 43.5501C202.337 43.7745 202.388 44.0869 202.612 44.2478L203.195 43.4353ZM199.356 41.6339C199.562 41.8182 199.878 41.8009 200.062 41.5953C200.247 41.3896 200.229 41.0735 200.024 40.8892L199.356 41.6339ZM197.148 38.0146C196.964 37.809 196.648 37.7918 196.442 37.9761C196.236 38.1604 196.219 38.4765 196.403 38.6821L197.148 38.0146ZM193.791 35.4229C193.952 35.6477 194.264 35.6998 194.489 35.5394C194.714 35.3789 194.766 35.0667 194.605 34.8419L193.791 35.4229ZM192.435 31.4056C192.301 31.164 191.997 31.0767 191.755 31.2105C191.514 31.3444 191.426 31.6487 191.56 31.8902L192.435 31.4056ZM189.754 28.1203C189.858 28.376 190.15 28.499 190.405 28.3949C190.661 28.2908 190.784 27.9991 190.68 27.7433L189.754 28.1203ZM189.553 23.9188C189.507 23.6464 189.25 23.4626 188.977 23.5081C188.705 23.5537 188.521 23.8114 188.567 24.0838L189.553 23.9188ZM188.388 20.0217C188.362 20.2966 188.564 20.5405 188.839 20.5665C189.114 20.5924 189.358 20.3906 189.384 20.1157L188.388 20.0217ZM190.375 16.4554C190.494 16.2062 190.388 15.9078 190.139 15.789C189.889 15.6702 189.591 15.7759 189.472 16.0252L190.375 16.4554ZM191.882 12.6611C191.687 12.856 191.686 13.1726 191.881 13.3682C192.076 13.5639 192.393 13.5645 192.588 13.3696L191.882 12.6611ZM195.632 11.0497C195.87 10.9087 195.948 10.6019 195.807 10.3645C195.666 10.127 195.359 10.0489 195.121 10.1899L195.632 11.0497ZM198.787 8.42764C198.53 8.52786 198.403 8.8177 198.503 9.07501C198.603 9.33233 198.893 9.45967 199.15 9.35945L198.787 8.42764ZM202.902 8.14771C203.169 8.07664 203.328 7.80271 203.257 7.53587C203.186 7.26903 202.912 7.11032 202.645 7.18139L202.902 8.14771ZM206.582 6.30549C206.31 6.35537 206.13 6.61599 206.18 6.88759C206.23 7.15919 206.491 7.33892 206.762 7.28903L206.582 6.30549ZM210.673 6.69344C210.947 6.65947 211.141 6.40978 211.107 6.13573C211.073 5.86169 210.824 5.66707 210.55 5.70104L210.673 6.69344ZM214.532 5.30188C214.257 5.32346 214.051 5.56413 214.073 5.83943C214.095 6.11473 214.335 6.3204 214.611 6.29882L214.532 5.30188ZM218.563 6.06288C218.839 6.05121 219.053 5.81809 219.042 5.5422C219.03 5.2663 218.797 5.0521 218.521 5.06377L218.563 6.06288ZM222.514 4.95559C222.238 4.95913 222.017 5.18584 222.021 5.46196C222.024 5.73808 222.251 5.95905 222.527 5.9555L222.514 4.95559ZM226.498 5.95477C226.775 5.95801 227.001 5.7368 227.004 5.46067C227.008 5.18455 226.786 4.95808 226.51 4.95484L226.498 5.95477ZM230.507 5.04456C230.231 5.03556 230 5.25201 229.991 5.528C229.982 5.804 230.199 6.03503 230.475 6.04403L230.507 5.04456ZM234.452 6.21018C234.728 6.22411 234.963 6.01183 234.976 5.73604C234.99 5.46025 234.778 5.22538 234.502 5.21145L234.452 6.21018ZM238.492 5.44469C238.217 5.42649 237.979 5.63511 237.961 5.91065C237.942 6.1862 238.151 6.42432 238.427 6.44251L238.492 5.44469ZM242.393 6.73195C242.669 6.75386 242.91 6.54846 242.932 6.27319C242.953 5.99792 242.748 5.75701 242.473 5.7351L242.393 6.73195ZM246.451 6.07584C246.176 6.05068 245.932 6.25322 245.907 6.52821C245.882 6.8032 246.084 7.04653 246.359 7.07168L246.451 6.07584ZM250.324 7.45556C250.599 7.48356 250.844 7.28356 250.872 7.00884C250.9 6.73413 250.7 6.48872 250.426 6.46072L250.324 7.45556ZM254.395 6.8839C254.12 6.85341 253.873 7.05118 253.843 7.32563C253.812 7.60009 254.01 7.84729 254.284 7.87778L254.395 6.8839ZM258.237 8.33301C258.511 8.36565 258.76 8.16983 258.792 7.89563C258.825 7.62142 258.629 7.37267 258.355 7.34002L258.237 8.33301ZM262.307 7.82444C262.033 7.78995 261.783 7.98409 261.749 8.25807C261.714 8.53205 261.908 8.78212 262.182 8.81661L262.307 7.82444ZM266.14 9.3265C266.414 9.36252 266.665 9.16978 266.701 8.89599C266.737 8.62221 266.544 8.37106 266.271 8.33504L266.14 9.3265ZM270.23 8.8652C269.956 8.82799 269.704 9.01964 269.667 9.29326C269.63 9.56688 269.822 9.81887 270.095 9.85608L270.23 8.8652ZM274.047 10.4C274.321 10.438 274.574 10.2471 274.612 9.97358C274.65 9.70007 274.459 9.44753 274.185 9.40952L274.047 10.4ZM278.136 9.96151C277.863 9.92321 277.61 10.1138 277.572 10.3873C277.534 10.6608 277.724 10.9135 277.998 10.9518L278.136 9.96151ZM281.946 11.5028C282.219 11.5407 282.472 11.3496 282.51 11.0761C282.548 10.8025 282.357 10.5501 282.083 10.5122L281.946 11.5028ZM286.017 11.0469C285.743 11.0106 285.492 11.2032 285.456 11.4769C285.42 11.7507 285.612 12.002 285.886 12.0382L286.017 11.0469ZM289.856 12.5371C290.13 12.5691 290.379 12.3727 290.411 12.0984C290.443 11.8242 290.246 11.5759 289.972 11.5439L289.856 12.5371ZM293.91 11.9321C293.634 11.9125 293.395 12.1199 293.376 12.3953C293.356 12.6708 293.563 12.91 293.839 12.9296L293.91 11.9321ZM0.415518 30.9928C1.06352 31.1039 1.72416 31.2136 2.39699 31.3215L2.55536 30.3342C1.88611 30.2268 1.22901 30.1177 0.584482 30.0072L0.415518 30.9928ZM6.37523 31.9161C7.66987 32.0955 9.00152 32.2663 10.3676 32.4259L10.4837 31.4327C9.12486 31.2739 7.80027 31.104 6.51248 30.9255L6.37523 31.9161ZM14.3702 32.8503C15.6808 32.9751 17.0183 33.0884 18.3808 33.1883L18.4539 32.191C17.0988 32.0916 15.7685 31.9789 14.4649 31.8548L14.3702 32.8503ZM22.3981 33.4385C23.7193 33.5062 25.0608 33.5604 26.421 33.5995L26.4497 32.5999C25.0972 32.561 23.7632 32.5071 22.4493 32.4398L22.3981 33.4385ZM30.448 33.6693C31.7743 33.677 33.116 33.6696 34.4719 33.6457L34.4543 32.6459C33.1064 32.6696 31.7725 32.6769 30.4538 32.6693L30.448 33.6693ZM38.4949 33.5269C39.8241 33.4716 41.1651 33.3997 42.5166 33.3101L42.4504 32.3123C41.1073 32.4014 39.7745 32.4728 38.4533 32.5277L38.4949 33.5269ZM46.5306 32.9932C47.8569 32.8716 49.1918 32.7321 50.5344 32.5738L50.4172 31.5807C49.0834 31.738 47.7571 31.8765 46.4393 31.9974L46.5306 32.9932ZM54.5294 32.0487C55.8487 31.8573 57.1743 31.647 58.5049 31.4166L58.3344 30.4313C57.0129 30.6601 55.6963 30.869 54.3858 31.0591L54.5294 32.0487ZM62.4646 30.674C63.773 30.4095 65.0853 30.1249 66.4005 29.8192L66.1742 28.8452C64.8685 29.1486 63.5656 29.4312 62.2664 29.6938L62.4646 30.674ZM70.3108 28.8498C70.9589 28.6788 71.6075 28.5026 72.2565 28.321L71.9869 27.358C71.3428 27.5383 70.6991 27.7132 70.0558 27.8828L70.3108 28.8498ZM72.2565 28.321C72.8959 28.142 73.5224 27.9656 74.1364 27.7917L73.8639 26.8296C73.2509 27.0032 72.6254 27.1793 71.9869 27.358L72.2565 28.321ZM77.8668 26.7211C79.1619 26.3442 80.3968 25.9789 81.5779 25.6237L81.2898 24.666C80.1118 25.0204 78.8798 25.3848 77.5873 25.761L77.8668 26.7211ZM85.2906 24.485C86.5882 24.0787 87.8164 23.6847 88.9866 23.3003L88.6744 22.3502C87.509 22.7332 86.2852 23.1257 84.9918 23.5306L85.2906 24.485ZM92.6735 22.0547C93.9528 21.6098 95.1645 21.1744 96.3285 20.7436L95.9814 19.8058C94.8237 20.2343 93.6182 20.6675 92.3451 21.1102L92.6735 22.0547ZM99.9595 19.3564C101.184 18.8741 102.374 18.391 103.559 17.8998L103.176 16.9761C101.996 17.4653 100.811 17.9462 99.593 18.4259L99.9595 19.3564ZM107.134 16.3914C108.292 15.8961 109.472 15.3865 110.698 14.8567L110.301 13.9387C109.075 14.4686 107.897 14.9775 106.741 15.472L107.134 16.3914ZM114.251 13.3248C115.384 12.8384 116.568 12.3329 117.818 11.8045L117.429 10.8833C116.176 11.4127 114.99 11.9189 113.856 12.4059L114.251 13.3248ZM121.393 10.3085C121.976 10.0673 122.573 9.82138 123.185 9.57046L122.806 8.64516C122.192 8.89656 121.594 9.14296 121.011 9.38464L121.393 10.3085ZM123.185 9.57046C123.762 9.33373 124.332 9.10341 124.895 8.87933L124.525 7.95026C123.959 8.17563 123.386 8.40722 122.806 8.64516L123.185 9.57046ZM128.333 7.55656C129.514 7.11887 130.667 6.71007 131.799 6.32858L131.479 5.38098C130.337 5.76586 129.175 6.178 127.985 6.61887L128.333 7.55656ZM135.301 5.21502C136.496 4.85914 137.673 4.53385 138.842 4.23712L138.596 3.26787C137.413 3.56808 136.223 3.89702 135.016 4.25664L135.301 5.21502ZM142.419 3.41243C143.619 3.16401 144.819 2.94382 146.029 2.74969L145.871 1.76232C144.646 1.95881 143.431 2.18171 142.216 2.43321L142.419 3.41243ZM149.666 2.24715C150.864 2.10736 152.08 1.98984 153.324 1.89266L153.246 0.895696C151.99 0.993816 150.761 1.11254 149.55 1.25389L149.666 2.24715ZM156.994 1.66695C158.188 1.61212 159.411 1.57276 160.671 1.5474L160.651 0.547604C159.383 0.573123 158.151 0.61274 156.948 0.668006L156.994 1.66695ZM164.356 1.51172C164.962 1.51164 165.577 1.51415 166.202 1.51911L166.21 0.519144C165.583 0.514159 164.965 0.511636 164.356 0.511721L164.356 1.51172ZM166.202 1.51911C166.794 1.52382 167.367 1.53036 167.923 1.53906L167.939 0.539178C167.379 0.530438 166.804 0.523869 166.21 0.519144L166.202 1.51911ZM171.356 1.62983C172.543 1.6765 173.671 1.73932 174.777 1.8226L174.853 0.825417C173.733 0.74114 172.593 0.677681 171.395 0.630604L171.356 1.62983ZM178.186 2.15208C179.288 2.28251 180.406 2.43802 181.579 2.62306L181.735 1.63528C180.551 1.4484 179.419 1.29108 178.304 1.15902L178.186 2.15208ZM184.961 3.20815C185.508 3.31004 186.07 3.41785 186.65 3.53192L186.843 2.55068C186.26 2.43605 185.694 2.32762 185.144 2.22508L184.961 3.20815ZM186.65 3.53192C187.31 3.66152 187.955 3.78761 188.588 3.91107L188.779 2.92961C188.147 2.80614 187.502 2.68016 186.843 2.55068L186.65 3.53192ZM192.448 4.67111C193.781 4.93851 195.057 5.20255 196.291 5.47465L196.507 4.49811C195.264 4.22415 193.981 3.95873 192.644 3.69063L192.448 4.67111ZM200.101 6.38403C201.38 6.71761 202.625 7.07547 203.853 7.47277L204.161 6.52129C202.912 6.11721 201.648 5.75406 200.353 5.41637L200.101 6.38403ZM207.519 8.80213C208.696 9.27823 209.876 9.8059 211.076 10.399L211.519 9.50254C210.297 8.89834 209.094 8.3605 207.894 7.87513L207.519 8.80213ZM214.514 12.2493C215.591 12.8753 216.695 13.5596 217.836 14.3111L218.386 13.4759C217.23 12.7149 216.111 12.0207 215.017 11.3848L214.514 12.2493ZM221.051 16.536C221.57 16.911 222.096 17.2996 222.633 17.7026L223.233 16.9032C222.693 16.4968 222.161 16.1045 221.638 15.7258L221.051 16.536ZM222.633 17.7026C223.137 18.0821 223.628 18.4847 224.104 18.908L224.769 18.1606C224.273 17.7198 223.761 17.2997 223.233 16.9032L222.633 17.7026ZM226.754 21.649C227.569 22.6242 228.321 23.6603 229.003 24.7387L229.848 24.2041C229.143 23.09 228.366 22.0181 227.521 21.0077L226.754 21.649ZM230.841 28.094C231.39 29.2627 231.86 30.4548 232.245 31.6499L233.197 31.343C232.798 30.107 232.313 28.8755 231.746 27.669L230.841 28.094ZM233.165 35.3562C233.388 36.6498 233.503 37.9192 233.501 39.1382L234.501 39.1393C234.503 37.8577 234.383 36.5307 234.15 35.186L233.165 35.3562ZM233.085 42.878C232.781 44.1453 232.31 45.2986 231.665 46.3006L232.506 46.842C233.22 45.7323 233.731 44.4716 234.057 43.1108L233.085 42.878ZM229.096 48.8859C228.137 49.5038 227.002 49.9631 225.676 50.2235L225.868 51.2048C227.309 50.9219 228.564 50.4183 229.638 49.7267L229.096 48.8859ZM221.922 50.4346C221.318 50.3973 220.687 50.329 220.029 50.2277L219.877 51.2161C220.563 51.3217 221.224 51.3934 221.86 51.4327L221.922 50.4346ZM220.029 50.2277C219.35 50.1234 218.681 50.0033 218.022 49.8683L217.821 50.8479C218.497 50.9863 219.182 51.1092 219.877 51.2161L220.029 50.2277ZM214.081 48.8518C212.764 48.4395 211.492 47.9653 210.266 47.4353L209.87 48.3532C211.127 48.897 212.432 49.3833 213.782 49.8061L214.081 48.8518ZM206.623 45.6248C205.427 44.9483 204.284 44.216 203.195 43.4353L202.612 44.2478C203.73 45.0493 204.903 45.8009 206.131 46.4953L206.623 45.6248ZM200.024 40.8892C199.002 39.9735 198.043 39.0126 197.148 38.0146L196.403 38.6821C197.322 39.707 198.307 40.6938 199.356 41.6339L200.024 40.8892ZM194.605 34.8419C193.807 33.7244 193.083 32.5757 192.435 31.4056L191.56 31.8902C192.227 33.0938 192.972 34.2747 193.791 35.4229L194.605 34.8419ZM190.68 27.7433C190.423 27.1118 190.188 26.4772 189.974 25.8408L189.026 26.159C189.246 26.8154 189.489 27.4696 189.754 28.1203L190.68 27.7433ZM189.983 25.8694C189.801 25.1969 189.658 24.5469 189.553 23.9188L188.567 24.0838C188.678 24.7464 188.827 25.4285 189.017 26.1305L189.983 25.8694ZM189.384 20.1157C189.51 18.7772 189.848 17.5611 190.375 16.4554L189.472 16.0252C188.893 17.2407 188.525 18.5711 188.388 20.0217L189.384 20.1157ZM192.588 13.3696C193.447 12.5139 194.466 11.7423 195.632 11.0497L195.121 10.1899C193.896 10.9181 192.808 11.7386 191.882 12.6611L192.588 13.3696ZM199.15 9.35945C200.316 8.90531 201.57 8.50256 202.902 8.14771L202.645 7.18139C201.282 7.54441 199.992 7.95825 198.787 8.42764L199.15 9.35945ZM206.762 7.28903C208.018 7.05844 209.323 6.86072 210.673 6.69344L210.55 5.70104C209.183 5.87045 207.858 6.07102 206.582 6.30549L206.762 7.28903ZM214.611 6.29882C215.899 6.19782 217.218 6.11979 218.563 6.06288L218.521 5.06377C217.165 5.12114 215.834 5.19986 214.532 5.30188L214.611 6.29882ZM222.527 5.9555C223.833 5.93875 225.158 5.93902 226.498 5.95477L226.51 4.95484C225.162 4.939 223.829 4.93872 222.514 4.95559L222.527 5.9555ZM230.475 6.04403C231.791 6.08693 233.117 6.14278 234.452 6.21018L234.502 5.21145C233.162 5.14377 231.83 5.08767 230.507 5.04456L230.475 6.04403ZM238.427 6.44251C239.746 6.52965 241.069 6.62656 242.393 6.73195L242.473 5.7351C241.144 5.62938 239.817 5.53213 238.492 5.44469L238.427 6.44251ZM246.359 7.07168C247.684 7.19289 249.007 7.32129 250.324 7.45556L250.426 6.46072C249.105 6.32612 247.779 6.19739 246.451 6.07584L246.359 7.07168ZM254.284 7.87778C255.612 8.02528 256.93 8.17748 258.237 8.33301L258.355 7.34002C257.046 7.18421 255.725 7.03171 254.395 6.8839L254.284 7.87778ZM262.182 8.81661C263.52 8.98503 264.841 9.15553 266.14 9.3265L266.271 8.33504C264.969 8.16386 263.647 7.99312 262.307 7.82444L262.182 8.81661ZM270.095 9.85608C271.443 10.0394 272.762 10.2214 274.047 10.4L274.185 9.40952C272.899 9.23083 271.579 9.04872 270.23 8.8652L270.095 9.85608ZM277.998 10.9518C279.366 11.1435 280.684 11.3281 281.946 11.5028L282.083 10.5122C280.822 10.3377 279.505 10.1532 278.136 9.96151L277.998 10.9518ZM285.886 12.0382C287.317 12.2276 288.645 12.3959 289.856 12.5371L289.972 11.5439C288.768 11.4034 287.445 11.2358 286.017 11.0469L285.886 12.0382ZM293.839 12.9296C294.602 12.984 295.272 13.0136 295.838 13.0136V12.0136C295.304 12.0136 294.659 11.9856 293.91 11.9321L293.839 12.9296Z" fill="black"/>
</svg>
