<svg width="206" height="90" viewBox="0 0 206 90" fill="none" xmlns="http://www.w3.org/2000/svg">
<path d="M166.236 88.8436L168.721 83.3208H173.139L168.721 88.8436H166.236Z" fill="#E1E1E1" stroke="#3B5998"/>
<path d="M193.574 88.8436L191.088 83.3208H186.67L191.088 88.8436H193.574Z" fill="#E1E1E1" stroke="#3B5998"/>
<path d="M43.6301 88.8436L47.2199 83.3208H51.6382L46.1154 88.8436H43.6301Z" fill="#E1E1E1" stroke="#3B5998"/>
<path d="M98.0295 88.8436L94.4397 83.3208H90.0215L95.5443 88.8436H98.0295Z" fill="#E1E1E1" stroke="#3B5998"/>
<path d="M34.189 58.1399H107.747V65.597C107.747 75.262 99.9116 83.097 90.2466 83.097H51.689C42.024 83.097 34.189 75.262 34.189 65.597V58.1399Z" fill="#E3ECFF" stroke="#3B5998"/>
<rect x="30.323" y="54.8262" width="81.2895" height="2.86595" rx="0.5" fill="#EDF3FF" stroke="#3B5998"/>
<rect x="124.763" y="8.98706" width="22.748" height="33.7936" rx="0.5" fill="#FBF6E0" stroke="#3B5998"/>
<rect x="116.479" y="9.78418" width="4.52279" height="2.31367" rx="0.5" fill="white" stroke="#3B5998"/>
<rect x="151.272" y="9.78418" width="4.52279" height="2.31367" rx="0.5" fill="white" stroke="#3B5998"/>
<line x1="121.501" y1="10.7485" x2="124.815" y2="10.7485" stroke="#3B5998"/>
<line x1="148.011" y1="10.7485" x2="151.324" y2="10.7485" stroke="#3B5998"/>
<line x1="126.972" y1="43.2283" x2="126.972" y2="44.4374" stroke="#3B5998" stroke-linecap="round"/>
<line x1="129.733" y1="43.2283" x2="129.733" y2="44.4374" stroke="#3B5998" stroke-linecap="round"/>
<line x1="132.495" y1="43.2283" x2="132.495" y2="44.4374" stroke="#3B5998" stroke-linecap="round"/>
<line x1="135.256" y1="43.2283" x2="135.256" y2="44.4374" stroke="#3B5998" stroke-linecap="round"/>
<line x1="138.018" y1="43.2283" x2="138.018" y2="44.4374" stroke="#3B5998" stroke-linecap="round"/>
<line x1="140.779" y1="43.2283" x2="140.779" y2="44.4374" stroke="#3B5998" stroke-linecap="round"/>
<line x1="143.54" y1="43.2283" x2="143.54" y2="44.4374" stroke="#3B5998" stroke-linecap="round"/>
<line x1="146.302" y1="43.2283" x2="146.302" y2="44.4374" stroke="#3B5998" stroke-linecap="round"/>
<line x1="0.5" y1="88.6196" x2="205.5" y2="88.6196" stroke="#3B5998" stroke-linecap="round"/>
<line x1="163.422" y1="35.6011" x2="196.111" y2="35.6011" stroke="#3B5998" stroke-linecap="round"/>
<rect x="167.288" y="8.98706" width="24.9571" height="26.6139" rx="0.5" fill="white" stroke="#3B5998"/>
<path d="M184.737 35.8249L183.633 29.1975H189.156L188.327 35.8249H184.737Z" fill="#FFF5FF" stroke="#3B5998"/>
<line x1="184.508" y1="22.6687" x2="185.94" y2="28.8739" stroke="#3B5998" stroke-linecap="round"/>
<rect x="163.422" y="45.9897" width="32.689" height="2.86595" rx="0.5" fill="#A8B9DE" stroke="#3B5998"/>
<path d="M166.184 49.3035H179.543V83.097H166.684C166.407 83.097 166.184 82.8732 166.184 82.597V49.3035Z" fill="#EDF3FF" stroke="#3B5998"/>
<path d="M179.991 49.3035H193.35V82.597C193.35 82.8732 193.126 83.097 192.85 83.097H179.991V49.3035Z" fill="#E3ECFF" stroke="#3B5998"/>
<rect x="166.184" y="49.3035" width="13.3592" height="5.62735" fill="#EDF3FF" stroke="#3B5998"/>
<rect x="166.184" y="55.3784" width="13.3592" height="6.17962" fill="#EDF3FF" stroke="#3B5998"/>
<line x1="171.154" y1="51.6172" x2="174.573" y2="51.6172" stroke="#3B5998" stroke-linecap="round"/>
<line x1="171.154" y1="58.2444" x2="174.573" y2="58.2444" stroke="#3B5998" stroke-linecap="round"/>
<line x1="177.229" y1="65.3196" x2="177.229" y2="68.7378" stroke="#3B5998" stroke-linecap="round"/>
<line x1="182.752" y1="52.0647" x2="182.752" y2="55.4829" stroke="#3B5998" stroke-linecap="round"/>
<path d="M6.57495 85.7014C6.57495 85.4253 6.79881 85.2014 7.07495 85.2014H16.1205C16.3967 85.2014 16.6205 85.4253 16.6205 85.7014V88.6196H6.57495V85.7014Z" fill="#A8B9DE" stroke="#3B5998"/>
<path d="M11.874 84.9777V14.0099C18.2252 -6.97676 45.0108 -0.0730761 45.0108 17.0475" stroke="#3B5998"/>
<rect x="39.7119" y="17.5161" width="10.0456" height="2.31367" rx="0.5" fill="white" stroke="#3B5998"/>
<line x1="40.8164" y1="20.3821" x2="48.6529" y2="20.3821" stroke="#3B5998" stroke-linecap="round"/>
<line x1="42.4731" y1="20.9343" x2="46.9959" y2="20.9343" stroke="#3B5998" stroke-linecap="round"/>
<rect x="14.8591" y="42.1238" width="4.52279" height="2.86595" rx="0.5" fill="white" stroke="#3B5998"/>
<line x1="14.3591" y1="43.7805" x2="11.5977" y2="43.7805" stroke="#3B5998"/>
</svg>
