<svg width="16" height="16" viewBox="0 0 16 16" fill="none" xmlns="http://www.w3.org/2000/svg">
<path d="M13.625 0.519531C13.1469 0.519531 12.6769 0.707031 12.3162 1.06703L6.125 7.23828L5.9875 7.37578L5.95 7.57141L5.51875 9.75891L5.325 10.6764L6.24188 10.4827L8.42938 10.0514L8.625 10.0139L8.7625 9.87641L14.9338 3.68516C15.1922 3.42579 15.3681 3.09573 15.4393 2.73656C15.5106 2.37739 15.4739 2.00517 15.3339 1.66681C15.194 1.32845 14.957 1.03907 14.6529 0.835127C14.3488 0.631189 13.9912 0.521813 13.625 0.520781V0.519531ZM13.625 1.73203C13.7719 1.73203 13.915 1.80703 14.055 1.94641C14.3337 2.22516 14.3337 2.52641 14.055 2.80578L8 8.85953L6.925 9.07453L7.14062 7.99953L13.1956 1.94453C13.335 1.80516 13.4781 1.73016 13.625 1.73016V1.73203ZM0.5 3.00078V15.5008H13V7.25828L11.75 8.50828V14.2508H1.75V4.25078H7.4925L8.7425 3.00078H0.5Z" fill="#3B5998"/>
</svg>
