<svg width="44" height="12" viewBox="0 0 44 12" fill="none" xmlns="http://www.w3.org/2000/svg">
<rect width="44" height="12" rx="6" fill="#42A81E"/>
<path d="M6.145 8.09C5.715 8.09 5.354 7.995 5.062 7.805C4.77 7.613 4.55 7.348 4.402 7.01C4.254 6.672 4.18 6.282 4.18 5.84C4.18 5.398 4.254 5.008 4.402 4.67C4.55 4.332 4.77 4.068 5.062 3.878C5.354 3.686 5.715 3.59 6.145 3.59C6.647 3.59 7.054 3.72 7.366 3.98C7.68 4.24 7.893 4.588 8.005 5.024L7.648 5.111C7.556 4.749 7.384 4.462 7.132 4.25C6.882 4.036 6.553 3.929 6.145 3.929C5.791 3.929 5.496 4.01 5.26 4.172C5.026 4.334 4.849 4.559 4.729 4.847C4.611 5.135 4.551 5.466 4.549 5.84C4.545 6.214 4.602 6.545 4.72 6.833C4.84 7.119 5.019 7.344 5.257 7.508C5.495 7.67 5.791 7.751 6.145 7.751C6.553 7.751 6.882 7.644 7.132 7.43C7.384 7.216 7.556 6.929 7.648 6.569L8.005 6.656C7.893 7.092 7.68 7.44 7.366 7.7C7.054 7.96 6.647 8.09 6.145 8.09ZM9.99119 8.09C9.66919 8.09 9.39619 8.017 9.17219 7.871C8.94819 7.725 8.77719 7.523 8.65919 7.265C8.54119 7.007 8.48219 6.71 8.48219 6.374C8.48219 6.036 8.54219 5.739 8.66219 5.483C8.78219 5.225 8.95419 5.025 9.17819 4.883C9.40419 4.741 9.67519 4.67 9.99119 4.67C10.3132 4.67 10.5862 4.743 10.8102 4.889C11.0362 5.033 11.2072 5.233 11.3232 5.489C11.4412 5.745 11.5002 6.04 11.5002 6.374C11.5002 6.716 11.4412 7.016 11.3232 7.274C11.2052 7.53 11.0332 7.73 10.8072 7.874C10.5812 8.018 10.3092 8.09 9.99119 8.09ZM9.99119 7.754C10.3732 7.754 10.6582 7.626 10.8462 7.37C11.0362 7.114 11.1312 6.782 11.1312 6.374C11.1312 5.958 11.0362 5.626 10.8462 5.378C10.6562 5.13 10.3712 5.006 9.99119 5.006C9.73319 5.006 9.52019 5.065 9.35219 5.183C9.18419 5.299 9.05819 5.46 8.97419 5.666C8.89219 5.87 8.85119 6.106 8.85119 6.374C8.85119 6.79 8.94719 7.124 9.13919 7.376C9.33319 7.628 9.61719 7.754 9.99119 7.754ZM16.0152 8L16.0212 5.822C16.0212 5.56 15.9462 5.355 15.7962 5.207C15.6482 5.057 15.4632 4.982 15.2412 4.982C15.1152 4.982 14.9902 5.011 14.8662 5.069C14.7442 5.127 14.6422 5.221 14.5602 5.351C14.4782 5.481 14.4372 5.657 14.4372 5.879L14.1942 5.84C14.1862 5.604 14.2292 5.399 14.3232 5.225C14.4192 5.049 14.5512 4.913 14.7192 4.817C14.8892 4.721 15.0822 4.673 15.2982 4.673C15.6162 4.673 15.8732 4.771 16.0692 4.967C16.2672 5.163 16.3662 5.431 16.3662 5.771L16.3602 8H16.0152ZM12.1602 8V4.76H12.4752V5.489H12.5052V8H12.1602ZM14.0892 8L14.0952 5.855C14.0952 5.587 14.0222 5.375 13.8762 5.219C13.7302 5.061 13.5402 4.982 13.3062 4.982C13.0682 4.982 12.8752 5.064 12.7272 5.228C12.5792 5.39 12.5052 5.607 12.5052 5.879L12.2652 5.759C12.2652 5.549 12.3132 5.363 12.4092 5.201C12.5052 5.037 12.6362 4.908 12.8022 4.814C12.9702 4.72 13.1622 4.673 13.3782 4.673C13.5722 4.673 13.7492 4.714 13.9092 4.796C14.0692 4.878 14.1972 5.002 14.2932 5.168C14.3892 5.332 14.4372 5.538 14.4372 5.786L14.4312 8H14.0892ZM17.2066 4.106V3.665H17.5516V4.106H17.2066ZM17.2066 8V4.76H17.5516V8H17.2066ZM20.8262 8V6.314C20.8262 6.11 20.8052 5.928 20.7632 5.768C20.7232 5.608 20.6612 5.472 20.5772 5.36C20.4952 5.248 20.3912 5.163 20.2652 5.105C20.1412 5.047 19.9942 5.018 19.8242 5.018C19.6482 5.018 19.4952 5.049 19.3652 5.111C19.2372 5.171 19.1312 5.256 19.0472 5.366C18.9652 5.476 18.9032 5.607 18.8612 5.759C18.8212 5.909 18.8012 6.073 18.8012 6.251L18.5282 6.218C18.5282 5.868 18.5872 5.58 18.7052 5.354C18.8252 5.126 18.9862 4.958 19.1882 4.85C19.3902 4.74 19.6172 4.685 19.8692 4.685C20.0472 4.685 20.2062 4.711 20.3462 4.763C20.4882 4.815 20.6112 4.889 20.7152 4.985C20.8192 5.079 20.9052 5.191 20.9732 5.321C21.0412 5.449 21.0912 5.59 21.1232 5.744C21.1572 5.898 21.1742 6.059 21.1742 6.227V8H20.8262ZM18.4532 8V4.76H18.7682V5.489H18.8012V8H18.4532ZM23.2113 9.53C23.0513 9.53 22.8913 9.506 22.7313 9.458C22.5733 9.412 22.4253 9.336 22.2873 9.23C22.1493 9.126 22.0323 8.987 21.9363 8.813L22.2483 8.627C22.3463 8.827 22.4853 8.97 22.6653 9.056C22.8453 9.142 23.0283 9.185 23.2143 9.185C23.4763 9.185 23.6833 9.136 23.8353 9.038C23.9893 8.942 24.0993 8.797 24.1653 8.603C24.2313 8.411 24.2643 8.172 24.2643 7.886V7.037H24.3003V4.76H24.6152V7.886C24.6152 7.982 24.6133 8.074 24.6093 8.162C24.6053 8.25 24.5963 8.338 24.5823 8.426C24.5463 8.676 24.4723 8.882 24.3603 9.044C24.2483 9.208 24.0963 9.33 23.9043 9.41C23.7143 9.49 23.4833 9.53 23.2113 9.53ZM23.1963 8.09C22.8903 8.09 22.6313 8.015 22.4193 7.865C22.2093 7.713 22.0483 7.508 21.9363 7.25C21.8263 6.99 21.7713 6.698 21.7713 6.374C21.7713 6.054 21.8263 5.765 21.9363 5.507C22.0463 5.249 22.2043 5.045 22.4103 4.895C22.6183 4.745 22.8693 4.67 23.1633 4.67C23.4653 4.67 23.7203 4.744 23.9283 4.892C24.1363 5.04 24.2933 5.243 24.3993 5.501C24.5053 5.757 24.5583 6.048 24.5583 6.374C24.5583 6.698 24.5053 6.989 24.3993 7.247C24.2933 7.505 24.1393 7.71 23.9373 7.862C23.7353 8.014 23.4883 8.09 23.1963 8.09ZM23.2173 7.76C23.4593 7.76 23.6603 7.7 23.8203 7.58C23.9823 7.458 24.1023 7.293 24.1803 7.085C24.2603 6.875 24.3003 6.638 24.3003 6.374C24.3003 6.108 24.2603 5.871 24.1803 5.663C24.1003 5.455 23.9803 5.293 23.8203 5.177C23.6603 5.059 23.4613 5 23.2233 5C22.9773 5 22.7743 5.061 22.6143 5.183C22.4543 5.303 22.3353 5.467 22.2573 5.675C22.1793 5.881 22.1403 6.114 22.1403 6.374C22.1403 6.636 22.1803 6.872 22.2603 7.082C22.3423 7.29 22.4623 7.455 22.6203 7.577C22.7803 7.699 22.9793 7.76 23.2173 7.76ZM27.8533 8.084C27.4793 8.084 27.1703 8.005 26.9263 7.847C26.6843 7.689 26.5343 7.469 26.4763 7.187L26.8303 7.127C26.8803 7.319 26.9983 7.472 27.1843 7.586C27.3703 7.7 27.5983 7.757 27.8683 7.757C28.1363 7.757 28.3493 7.7 28.5073 7.586C28.6653 7.472 28.7443 7.316 28.7443 7.118C28.7443 7.01 28.7193 6.922 28.6693 6.854C28.6213 6.784 28.5253 6.72 28.3813 6.662C28.2373 6.604 28.0233 6.536 27.7393 6.458C27.4393 6.378 27.2043 6.298 27.0343 6.218C26.8663 6.138 26.7473 6.047 26.6773 5.945C26.6093 5.843 26.5753 5.718 26.5753 5.57C26.5753 5.392 26.6263 5.236 26.7283 5.102C26.8303 4.966 26.9723 4.86 27.1543 4.784C27.3383 4.708 27.5503 4.67 27.7903 4.67C28.0303 4.67 28.2463 4.71 28.4383 4.79C28.6303 4.868 28.7853 4.978 28.9033 5.12C29.0213 5.26 29.0893 5.423 29.1073 5.609L28.7533 5.675C28.7193 5.467 28.6143 5.303 28.4383 5.183C28.2623 5.061 28.0423 4.999 27.7783 4.997C27.5283 4.993 27.3243 5.043 27.1663 5.147C27.0083 5.249 26.9293 5.384 26.9293 5.552C26.9293 5.648 26.9563 5.73 27.0103 5.798C27.0663 5.864 27.1643 5.925 27.3043 5.981C27.4443 6.037 27.6423 6.097 27.8983 6.161C28.2103 6.241 28.4533 6.323 28.6273 6.407C28.8033 6.491 28.9273 6.59 28.9993 6.704C29.0713 6.816 29.1073 6.955 29.1073 7.121C29.1073 7.421 28.9953 7.657 28.7713 7.829C28.5493 7.999 28.2433 8.084 27.8533 8.084ZM31.1025 8.09C30.7805 8.09 30.5075 8.017 30.2835 7.871C30.0595 7.725 29.8885 7.523 29.7705 7.265C29.6525 7.007 29.5935 6.71 29.5935 6.374C29.5935 6.036 29.6535 5.739 29.7735 5.483C29.8935 5.225 30.0655 5.025 30.2895 4.883C30.5155 4.741 30.7865 4.67 31.1025 4.67C31.4245 4.67 31.6975 4.743 31.9215 4.889C32.1475 5.033 32.3185 5.233 32.4345 5.489C32.5525 5.745 32.6115 6.04 32.6115 6.374C32.6115 6.716 32.5525 7.016 32.4345 7.274C32.3165 7.53 32.1445 7.73 31.9185 7.874C31.6925 8.018 31.4205 8.09 31.1025 8.09ZM31.1025 7.754C31.4845 7.754 31.7695 7.626 31.9575 7.37C32.1475 7.114 32.2425 6.782 32.2425 6.374C32.2425 5.958 32.1475 5.626 31.9575 5.378C31.7675 5.13 31.4825 5.006 31.1025 5.006C30.8445 5.006 30.6315 5.065 30.4635 5.183C30.2955 5.299 30.1695 5.46 30.0855 5.666C30.0035 5.87 29.9625 6.106 29.9625 6.374C29.9625 6.79 30.0585 7.124 30.2505 7.376C30.4445 7.628 30.7285 7.754 31.1025 7.754ZM34.6006 8.09C34.2786 8.09 34.0056 8.017 33.7816 7.871C33.5576 7.725 33.3866 7.523 33.2686 7.265C33.1506 7.007 33.0916 6.71 33.0916 6.374C33.0916 6.036 33.1516 5.739 33.2716 5.483C33.3916 5.225 33.5636 5.025 33.7876 4.883C34.0136 4.741 34.2846 4.67 34.6006 4.67C34.9226 4.67 35.1956 4.743 35.4196 4.889C35.6456 5.033 35.8166 5.233 35.9326 5.489C36.0506 5.745 36.1096 6.04 36.1096 6.374C36.1096 6.716 36.0506 7.016 35.9326 7.274C35.8146 7.53 35.6426 7.73 35.4166 7.874C35.1906 8.018 34.9186 8.09 34.6006 8.09ZM34.6006 7.754C34.9826 7.754 35.2676 7.626 35.4556 7.37C35.6456 7.114 35.7406 6.782 35.7406 6.374C35.7406 5.958 35.6456 5.626 35.4556 5.378C35.2656 5.13 34.9806 5.006 34.6006 5.006C34.3426 5.006 34.1296 5.065 33.9616 5.183C33.7936 5.299 33.6676 5.46 33.5836 5.666C33.5016 5.87 33.4606 6.106 33.4606 6.374C33.4606 6.79 33.5566 7.124 33.7486 7.376C33.9426 7.628 34.2266 7.754 34.6006 7.754ZM39.1426 8V6.314C39.1426 6.11 39.1216 5.928 39.0796 5.768C39.0396 5.608 38.9776 5.472 38.8936 5.36C38.8116 5.248 38.7076 5.163 38.5816 5.105C38.4576 5.047 38.3106 5.018 38.1406 5.018C37.9646 5.018 37.8116 5.049 37.6816 5.111C37.5536 5.171 37.4476 5.256 37.3636 5.366C37.2816 5.476 37.2196 5.607 37.1776 5.759C37.1376 5.909 37.1176 6.073 37.1176 6.251L36.8446 6.218C36.8446 5.868 36.9036 5.58 37.0216 5.354C37.1416 5.126 37.3026 4.958 37.5046 4.85C37.7066 4.74 37.9336 4.685 38.1856 4.685C38.3636 4.685 38.5226 4.711 38.6626 4.763C38.8046 4.815 38.9276 4.889 39.0316 4.985C39.1356 5.079 39.2216 5.191 39.2896 5.321C39.3576 5.449 39.4076 5.59 39.4396 5.744C39.4736 5.898 39.4906 6.059 39.4906 6.227V8H39.1426ZM36.7696 8V4.76H37.0846V5.489H37.1176V8H36.7696Z" fill="white"/>
</svg>
