<svg width="272" height="48" viewBox="0 0 272 48" fill="none" xmlns="http://www.w3.org/2000/svg">
<rect x="0.5" y="0.5" width="271" height="47" rx="7.5" fill="#3B5998"/>
<g clip-path="url(#clip0_8278_27681)">
<path d="M67 25H62V30C62 30.55 61.55 31 61 31C60.45 31 60 30.55 60 30V25H55C54.45 25 54 24.55 54 24C54 23.45 54.45 23 55 23H60V18C60 17.45 60.45 17 61 17C61.55 17 62 17.45 62 18V23H67C67.55 23 68 23.45 68 24C68 24.55 67.55 25 67 25Z" fill="white"/>
</g>
<path d="M97.1193 22H95.5341C95.4403 21.544 95.2763 21.1435 95.0419 20.7983C94.8118 20.4531 94.5305 20.1634 94.1982 19.929C93.87 19.6903 93.5057 19.5114 93.1051 19.392C92.7045 19.2727 92.2869 19.2131 91.8523 19.2131C91.0597 19.2131 90.3416 19.4134 89.6982 19.8139C89.0589 20.2145 88.5497 20.8047 88.1705 21.5845C87.7955 22.3643 87.608 23.321 87.608 24.4545C87.608 25.5881 87.7955 26.5447 88.1705 27.3246C88.5497 28.1044 89.0589 28.6946 89.6982 29.0952C90.3416 29.4957 91.0597 29.696 91.8523 29.696C92.2869 29.696 92.7045 29.6364 93.1051 29.517C93.5057 29.3977 93.87 29.2209 94.1982 28.9865C94.5305 28.7479 94.8118 28.456 95.0419 28.1108C95.2763 27.7614 95.4403 27.3608 95.5341 26.9091H97.1193C97 27.5781 96.7827 28.1768 96.4673 28.7053C96.152 29.2337 95.7599 29.6832 95.2912 30.054C94.8224 30.4205 94.2962 30.6996 93.7124 30.8913C93.1328 31.0831 92.5128 31.179 91.8523 31.179C90.7358 31.179 89.7429 30.9062 88.8736 30.3608C88.0043 29.8153 87.3203 29.0398 86.8217 28.0341C86.3232 27.0284 86.0739 25.8352 86.0739 24.4545C86.0739 23.0739 86.3232 21.8807 86.8217 20.875C87.3203 19.8693 88.0043 19.0938 88.8736 18.5483C89.7429 18.0028 90.7358 17.7301 91.8523 17.7301C92.5128 17.7301 93.1328 17.826 93.7124 18.0178C94.2962 18.2095 94.8224 18.4908 95.2912 18.8615C95.7599 19.228 96.152 19.6754 96.4673 20.2038C96.7827 20.728 97 21.3267 97.1193 22ZM99.4764 31V21.1818H100.934V22.6648H101.036C101.215 22.179 101.539 21.7848 102.008 21.4822C102.476 21.1797 103.005 21.0284 103.593 21.0284C103.704 21.0284 103.842 21.0305 104.008 21.0348C104.175 21.0391 104.3 21.0455 104.385 21.054V22.5881C104.334 22.5753 104.217 22.5561 104.034 22.5305C103.855 22.5007 103.665 22.4858 103.465 22.4858C102.988 22.4858 102.562 22.5859 102.187 22.7862C101.816 22.9822 101.522 23.255 101.305 23.6044C101.091 23.9496 100.985 24.3437 100.985 24.7869V31H99.4764ZM109.991 31.2045C109.045 31.2045 108.229 30.9957 107.543 30.5781C106.861 30.1562 106.335 29.5682 105.964 28.8139C105.598 28.0554 105.415 27.1733 105.415 26.1676C105.415 25.1619 105.598 24.2756 105.964 23.5085C106.335 22.7372 106.851 22.1364 107.511 21.706C108.176 21.2713 108.952 21.054 109.838 21.054C110.349 21.054 110.854 21.1392 111.353 21.3097C111.851 21.4801 112.305 21.7571 112.714 22.1406C113.123 22.5199 113.449 23.0227 113.692 23.6491C113.935 24.2756 114.057 25.0469 114.057 25.9631V26.6023H106.488V25.2983H112.523C112.523 24.7443 112.412 24.25 112.19 23.8153C111.973 23.3807 111.662 23.0376 111.257 22.7862C110.856 22.5348 110.383 22.4091 109.838 22.4091C109.237 22.4091 108.717 22.5582 108.278 22.8565C107.844 23.1506 107.509 23.5341 107.275 24.0071C107.04 24.4801 106.923 24.9872 106.923 25.5284V26.3977C106.923 27.1392 107.051 27.7678 107.307 28.2834C107.567 28.7947 107.927 29.1847 108.387 29.4531C108.847 29.7173 109.382 29.8494 109.991 29.8494C110.388 29.8494 110.746 29.794 111.065 29.6832C111.389 29.5682 111.668 29.3977 111.903 29.1719C112.137 28.9418 112.318 28.6562 112.446 28.3153L113.903 28.7244C113.75 29.2188 113.492 29.6534 113.13 30.0284C112.768 30.3991 112.32 30.6889 111.787 30.8977C111.255 31.1023 110.656 31.2045 109.991 31.2045ZM119.241 31.2301C118.618 31.2301 118.054 31.1129 117.547 30.8786C117.04 30.6399 116.637 30.2969 116.339 29.8494C116.04 29.3977 115.891 28.8523 115.891 28.2131C115.891 27.6506 116.002 27.1946 116.224 26.8452C116.445 26.4915 116.741 26.2145 117.112 26.0142C117.483 25.8139 117.892 25.6648 118.339 25.5668C118.791 25.4645 119.245 25.3835 119.701 25.3239C120.297 25.2472 120.781 25.1896 121.152 25.1513C121.527 25.1087 121.8 25.0384 121.97 24.9403C122.145 24.8423 122.232 24.6719 122.232 24.429V24.3778C122.232 23.7472 122.059 23.2571 121.714 22.9077C121.373 22.5582 120.856 22.3835 120.161 22.3835C119.441 22.3835 118.876 22.5412 118.467 22.8565C118.058 23.1719 117.77 23.5085 117.604 23.8665L116.172 23.3551C116.428 22.7585 116.769 22.294 117.195 21.9616C117.626 21.625 118.094 21.3906 118.601 21.2585C119.113 21.1222 119.616 21.054 120.11 21.054C120.425 21.054 120.787 21.0923 121.197 21.169C121.61 21.2415 122.008 21.3928 122.392 21.6229C122.78 21.853 123.101 22.2003 123.357 22.6648C123.613 23.1293 123.741 23.7514 123.741 24.5312V31H122.232V29.6705H122.155C122.053 29.8835 121.883 30.1115 121.644 30.3544C121.405 30.5973 121.088 30.804 120.692 30.9744C120.295 31.1449 119.812 31.2301 119.241 31.2301ZM119.471 29.875C120.067 29.875 120.57 29.7578 120.979 29.5234C121.393 29.2891 121.704 28.9865 121.912 28.6158C122.126 28.245 122.232 27.8551 122.232 27.446V26.0653C122.168 26.142 122.028 26.2124 121.81 26.2763C121.597 26.3359 121.35 26.3892 121.069 26.4361C120.792 26.4787 120.521 26.517 120.257 26.5511C119.997 26.581 119.786 26.6065 119.624 26.6278C119.232 26.679 118.866 26.7621 118.525 26.8771C118.188 26.9879 117.915 27.1562 117.706 27.3821C117.502 27.6037 117.4 27.9062 117.4 28.2898C117.4 28.8139 117.594 29.2102 117.981 29.4787C118.373 29.7429 118.87 29.875 119.471 29.875ZM130.764 21.1818V22.4602H125.676V21.1818H130.764ZM127.159 18.8295H128.667V28.1875C128.667 28.6136 128.729 28.9332 128.853 29.1463C128.98 29.3551 129.142 29.4957 129.338 29.5682C129.539 29.6364 129.75 29.6705 129.971 29.6705C130.137 29.6705 130.274 29.6619 130.38 29.6449C130.487 29.6236 130.572 29.6065 130.636 29.5938L130.943 30.9489C130.841 30.9872 130.698 31.0256 130.515 31.0639C130.331 31.1065 130.099 31.1278 129.818 31.1278C129.392 31.1278 128.974 31.0362 128.565 30.853C128.16 30.6697 127.824 30.3906 127.555 30.0156C127.291 29.6406 127.159 29.1676 127.159 28.5966V18.8295ZM137.044 31.2045C136.098 31.2045 135.282 30.9957 134.596 30.5781C133.914 30.1562 133.388 29.5682 133.017 28.8139C132.651 28.0554 132.467 27.1733 132.467 26.1676C132.467 25.1619 132.651 24.2756 133.017 23.5085C133.388 22.7372 133.903 22.1364 134.564 21.706C135.229 21.2713 136.004 21.054 136.891 21.054C137.402 21.054 137.907 21.1392 138.406 21.3097C138.904 21.4801 139.358 21.7571 139.767 22.1406C140.176 22.5199 140.502 23.0227 140.745 23.6491C140.988 24.2756 141.109 25.0469 141.109 25.9631V26.6023H133.541V25.2983H139.575C139.575 24.7443 139.464 24.25 139.243 23.8153C139.026 23.3807 138.714 23.0376 138.31 22.7862C137.909 22.5348 137.436 22.4091 136.891 22.4091C136.29 22.4091 135.77 22.5582 135.331 22.8565C134.896 23.1506 134.562 23.5341 134.327 24.0071C134.093 24.4801 133.976 24.9872 133.976 25.5284V26.3977C133.976 27.1392 134.104 27.7678 134.359 28.2834C134.619 28.7947 134.979 29.1847 135.44 29.4531C135.9 29.7173 136.435 29.8494 137.044 29.8494C137.44 29.8494 137.798 29.794 138.118 29.6832C138.442 29.5682 138.721 29.3977 138.955 29.1719C139.19 28.9418 139.371 28.6562 139.499 28.3153L140.956 28.7244C140.803 29.2188 140.545 29.6534 140.183 30.0284C139.82 30.3991 139.373 30.6889 138.84 30.8977C138.308 31.1023 137.709 31.2045 137.044 31.2045ZM151.356 31.2301C150.734 31.2301 150.169 31.1129 149.662 30.8786C149.155 30.6399 148.752 30.2969 148.454 29.8494C148.156 29.3977 148.006 28.8523 148.006 28.2131C148.006 27.6506 148.117 27.1946 148.339 26.8452C148.56 26.4915 148.857 26.2145 149.227 26.0142C149.598 25.8139 150.007 25.6648 150.455 25.5668C150.906 25.4645 151.36 25.3835 151.816 25.3239C152.413 25.2472 152.896 25.1896 153.267 25.1513C153.642 25.1087 153.915 25.0384 154.085 24.9403C154.26 24.8423 154.347 24.6719 154.347 24.429V24.3778C154.347 23.7472 154.175 23.2571 153.83 22.9077C153.489 22.5582 152.971 22.3835 152.276 22.3835C151.556 22.3835 150.991 22.5412 150.582 22.8565C150.173 23.1719 149.886 23.5085 149.719 23.8665L148.288 23.3551C148.543 22.7585 148.884 22.294 149.31 21.9616C149.741 21.625 150.21 21.3906 150.717 21.2585C151.228 21.1222 151.731 21.054 152.225 21.054C152.54 21.054 152.903 21.0923 153.312 21.169C153.725 21.2415 154.124 21.3928 154.507 21.6229C154.895 21.853 155.217 22.2003 155.472 22.6648C155.728 23.1293 155.856 23.7514 155.856 24.5312V31H154.347V29.6705H154.271C154.168 29.8835 153.998 30.1115 153.759 30.3544C153.521 30.5973 153.203 30.804 152.807 30.9744C152.411 31.1449 151.927 31.2301 151.356 31.2301ZM151.586 29.875C152.183 29.875 152.685 29.7578 153.094 29.5234C153.508 29.2891 153.819 28.9865 154.028 28.6158C154.241 28.245 154.347 27.8551 154.347 27.446V26.0653C154.283 26.142 154.143 26.2124 153.925 26.2763C153.712 26.3359 153.465 26.3892 153.184 26.4361C152.907 26.4787 152.636 26.517 152.372 26.5511C152.112 26.581 151.901 26.6065 151.739 26.6278C151.347 26.679 150.981 26.7621 150.64 26.8771C150.303 26.9879 150.031 27.1562 149.822 27.3821C149.617 27.6037 149.515 27.9062 149.515 28.2898C149.515 28.8139 149.709 29.2102 150.097 29.4787C150.489 29.7429 150.985 29.875 151.586 29.875ZM163.876 31V17.9091H168.3C169.327 17.9091 170.166 18.0945 170.818 18.4652C171.474 18.8317 171.96 19.3281 172.275 19.9545C172.591 20.581 172.748 21.2798 172.748 22.0511C172.748 22.8224 172.591 23.5234 172.275 24.1541C171.964 24.7848 171.483 25.2876 170.831 25.6626C170.179 26.0334 169.344 26.2188 168.325 26.2188H165.155V24.8125H168.274C168.977 24.8125 169.542 24.6911 169.968 24.4482C170.394 24.2053 170.703 23.8771 170.895 23.4638C171.091 23.0462 171.189 22.5753 171.189 22.0511C171.189 21.527 171.091 21.0582 170.895 20.6449C170.703 20.2315 170.392 19.9077 169.961 19.6733C169.531 19.4347 168.96 19.3153 168.248 19.3153H165.461V31H163.876ZM175.097 31V21.1818H176.555V22.6648H176.657C176.836 22.179 177.16 21.7848 177.629 21.4822C178.097 21.1797 178.626 21.0284 179.214 21.0284C179.325 21.0284 179.463 21.0305 179.629 21.0348C179.796 21.0391 179.921 21.0455 180.007 21.054V22.5881C179.955 22.5753 179.838 22.5561 179.655 22.5305C179.476 22.5007 179.286 22.4858 179.086 22.4858C178.609 22.4858 178.183 22.5859 177.808 22.7862C177.437 22.9822 177.143 23.255 176.926 23.6044C176.713 23.9496 176.606 24.3437 176.606 24.7869V31H175.097ZM185.485 31.2045C184.598 31.2045 183.82 30.9936 183.151 30.5717C182.487 30.1499 181.967 29.5597 181.592 28.8011C181.221 28.0426 181.036 27.1562 181.036 26.142C181.036 25.1193 181.221 24.2266 181.592 23.4638C181.967 22.701 182.487 22.1087 183.151 21.6868C183.82 21.2649 184.598 21.054 185.485 21.054C186.371 21.054 187.146 21.2649 187.811 21.6868C188.48 22.1087 189 22.701 189.371 23.4638C189.746 24.2266 189.933 25.1193 189.933 26.142C189.933 27.1562 189.746 28.0426 189.371 28.8011C189 29.5597 188.48 30.1499 187.811 30.5717C187.146 30.9936 186.371 31.2045 185.485 31.2045ZM185.485 29.8494C186.158 29.8494 186.712 29.6768 187.146 29.3317C187.581 28.9865 187.903 28.5327 188.112 27.9702C188.32 27.4077 188.425 26.7983 188.425 26.142C188.425 25.4858 188.32 24.8743 188.112 24.3075C187.903 23.7408 187.581 23.2827 187.146 22.9332C186.712 22.5838 186.158 22.4091 185.485 22.4091C184.811 22.4091 184.257 22.5838 183.823 22.9332C183.388 23.2827 183.066 23.7408 182.857 24.3075C182.649 24.8743 182.544 25.4858 182.544 26.142C182.544 26.7983 182.649 27.4077 182.857 27.9702C183.066 28.5327 183.388 28.9865 183.823 29.3317C184.257 29.6768 184.811 29.8494 185.485 29.8494ZM192.236 21.1818H193.745V31.7159C193.745 32.321 193.64 32.8452 193.431 33.2884C193.227 33.7315 192.916 34.0746 192.498 34.3175C192.085 34.5604 191.563 34.6818 190.932 34.6818C190.881 34.6818 190.83 34.6818 190.779 34.6818C190.728 34.6818 190.676 34.6818 190.625 34.6818V33.2756C190.676 33.2756 190.723 33.2756 190.766 33.2756C190.809 33.2756 190.855 33.2756 190.907 33.2756C191.367 33.2756 191.703 33.1392 191.917 32.8665C192.13 32.598 192.236 32.2145 192.236 31.7159V21.1818ZM192.978 19.5455C192.684 19.5455 192.43 19.4453 192.217 19.245C192.008 19.0447 191.904 18.804 191.904 18.5227C191.904 18.2415 192.008 18.0007 192.217 17.8004C192.43 17.6001 192.684 17.5 192.978 17.5C193.272 17.5 193.523 17.6001 193.732 17.8004C193.945 18.0007 194.051 18.2415 194.051 18.5227C194.051 18.804 193.945 19.0447 193.732 19.245C193.523 19.4453 193.272 19.5455 192.978 19.5455ZM200.624 31.2045C199.678 31.2045 198.862 30.9957 198.176 30.5781C197.494 30.1562 196.968 29.5682 196.597 28.8139C196.231 28.0554 196.047 27.1733 196.047 26.1676C196.047 25.1619 196.231 24.2756 196.597 23.5085C196.968 22.7372 197.483 22.1364 198.144 21.706C198.809 21.2713 199.584 21.054 200.471 21.054C200.982 21.054 201.487 21.1392 201.986 21.3097C202.484 21.4801 202.938 21.7571 203.347 22.1406C203.756 22.5199 204.082 23.0227 204.325 23.6491C204.568 24.2756 204.689 25.0469 204.689 25.9631V26.6023H197.121V25.2983H203.155C203.155 24.7443 203.045 24.25 202.823 23.8153C202.606 23.3807 202.295 23.0376 201.89 22.7862C201.489 22.5348 201.016 22.4091 200.471 22.4091C199.87 22.4091 199.35 22.5582 198.911 22.8565C198.476 23.1506 198.142 23.5341 197.907 24.0071C197.673 24.4801 197.556 24.9872 197.556 25.5284V26.3977C197.556 27.1392 197.684 27.7678 197.939 28.2834C198.199 28.7947 198.559 29.1847 199.02 29.4531C199.48 29.7173 200.015 29.8494 200.624 29.8494C201.02 29.8494 201.378 29.794 201.698 29.6832C202.022 29.5682 202.301 29.3977 202.535 29.1719C202.77 28.9418 202.951 28.6562 203.079 28.3153L204.536 28.7244C204.383 29.2188 204.125 29.6534 203.763 30.0284C203.4 30.3991 202.953 30.6889 202.42 30.8977C201.888 31.1023 201.289 31.2045 200.624 31.2045ZM210.973 31.2045C210.052 31.2045 209.26 30.9872 208.595 30.5526C207.93 30.1179 207.419 29.5192 207.061 28.7564C206.703 27.9936 206.524 27.1222 206.524 26.142C206.524 25.1449 206.707 24.2649 207.074 23.5021C207.444 22.7351 207.96 22.1364 208.621 21.706C209.285 21.2713 210.061 21.054 210.947 21.054C211.638 21.054 212.26 21.1818 212.814 21.4375C213.368 21.6932 213.822 22.0511 214.175 22.5114C214.529 22.9716 214.748 23.5085 214.834 24.1222H213.325C213.21 23.6747 212.954 23.2784 212.558 22.9332C212.166 22.5838 211.638 22.4091 210.973 22.4091C210.385 22.4091 209.869 22.5625 209.426 22.8693C208.987 23.1719 208.644 23.6001 208.397 24.1541C208.154 24.7038 208.032 25.3494 208.032 26.0909C208.032 26.8494 208.152 27.5099 208.39 28.0724C208.633 28.6349 208.974 29.0717 209.413 29.3828C209.856 29.6939 210.376 29.8494 210.973 29.8494C211.365 29.8494 211.721 29.7812 212.04 29.6449C212.36 29.5085 212.631 29.3125 212.852 29.0568C213.074 28.8011 213.231 28.4943 213.325 28.1364H214.834C214.748 28.7159 214.537 29.2379 214.201 29.7024C213.868 30.1626 213.427 30.5291 212.878 30.8018C212.332 31.0703 211.697 31.2045 210.973 31.2045ZM221.309 21.1818V22.4602H216.221V21.1818H221.309ZM217.704 18.8295H219.212V28.1875C219.212 28.6136 219.274 28.9332 219.398 29.1463C219.525 29.3551 219.687 29.4957 219.883 29.5682C220.084 29.6364 220.295 29.6705 220.516 29.6705C220.682 29.6705 220.819 29.6619 220.925 29.6449C221.032 29.6236 221.117 29.6065 221.181 29.5938L221.488 30.9489C221.385 30.9872 221.243 31.0256 221.059 31.0639C220.876 31.1065 220.644 31.1278 220.363 31.1278C219.937 31.1278 219.519 31.0362 219.11 30.853C218.705 30.6697 218.368 30.3906 218.1 30.0156C217.836 29.6406 217.704 29.1676 217.704 28.5966V18.8295Z" fill="white"/>
<rect x="0.5" y="0.5" width="271" height="47" rx="7.5" stroke="#DFDFDF"/>
<defs>
<clipPath id="clip0_8278_27681">
<rect width="24" height="24" fill="white" transform="translate(49 12)"/>
</clipPath>
</defs>
</svg>
