<svg width="16" height="22" viewBox="0 0 16 22" fill="none" xmlns="http://www.w3.org/2000/svg">
<path d="M5.625 12.2L6.525 9.325L4.15 7.475H7.05L8 4.5L8.925 7.475H11.85L9.475 9.325L10.35 12.2L8 10.425L5.625 12.2ZM2.1 21.5V13.9C1.35 13.1167 0.8125 12.2583 0.4875 11.325C0.1625 10.3917 0 9.45 0 8.5C0 6.23333 0.766667 4.33333 2.3 2.8C3.83333 1.26667 5.73333 0.5 8 0.5C10.2667 0.5 12.1667 1.26667 13.7 2.8C15.2333 4.33333 16 6.23333 16 8.5C16 9.45 15.8375 10.3917 15.5125 11.325C15.1875 12.2583 14.65 13.1167 13.9 13.9V21.5L8 19.525L2.1 21.5ZM8 15C9.81667 15 11.3542 14.3708 12.6125 13.1125C13.8708 11.8542 14.5 10.3167 14.5 8.5C14.5 6.68333 13.8708 5.14583 12.6125 3.8875C11.3542 2.62917 9.81667 2 8 2C6.18333 2 4.64583 2.62917 3.3875 3.8875C2.12917 5.14583 1.5 6.68333 1.5 8.5C1.5 10.3167 2.12917 11.8542 3.3875 13.1125C4.64583 14.3708 6.18333 15 8 15ZM3.6 19.4L8 18.025L12.4 19.4V15.125C11.7333 15.6083 11.0167 15.9583 10.25 16.175C9.48333 16.3917 8.73333 16.5 8 16.5C7.26667 16.5 6.51667 16.3917 5.75 16.175C4.98333 15.9583 4.26667 15.6083 3.6 15.125V19.4Z" fill="white"/>
</svg>
