<svg width="65" height="24" viewBox="0 0 65 24" fill="none" xmlns="http://www.w3.org/2000/svg">
<rect x="0.5" y="0.5" width="64" height="23" rx="11.5" fill="#176091" stroke="#3B5998"/>
<path d="M29.668 17.0007C28.9346 17.0007 28.3413 17.6007 28.3413 18.334C28.3413 19.0673 28.9346 19.6673 29.668 19.6673C30.4013 19.6673 31.0013 19.0673 31.0013 18.334C31.0013 17.6007 30.4013 17.0007 29.668 17.0007ZM25.668 7.00065C25.668 7.36732 25.968 7.66732 26.3346 7.66732H27.0013L29.4013 12.7273L28.5013 14.354C28.0146 15.2473 28.6546 16.334 29.668 16.334H37.0013C37.368 16.334 37.668 16.034 37.668 15.6673C37.668 15.3007 37.368 15.0007 37.0013 15.0007H29.668L30.4013 13.6673H35.368C35.868 13.6673 36.308 13.394 36.5346 12.9807L38.9213 8.65398C39.168 8.21398 38.848 7.66732 38.3413 7.66732H28.4746L28.028 6.71398C27.9213 6.48065 27.6813 6.33398 27.428 6.33398H26.3346C25.968 6.33398 25.668 6.63398 25.668 7.00065V7.00065ZM36.3346 17.0007C35.6013 17.0007 35.008 17.6007 35.008 18.334C35.008 19.0673 35.6013 19.6673 36.3346 19.6673C37.068 19.6673 37.668 19.0673 37.668 18.334C37.668 17.6007 37.068 17.0007 36.3346 17.0007Z" fill="white"/>
</svg>
