<svg width="14" height="14" viewBox="0 0 14 14" fill="none" xmlns="http://www.w3.org/2000/svg">
<path fill-rule="evenodd" clip-rule="evenodd" d="M9.88643 8.93315L13.4731 12.5198C13.5992 12.646 13.67 12.817 13.6699 12.9954C13.6698 13.1737 13.5989 13.3447 13.4728 13.4708C13.3466 13.5969 13.1755 13.6677 12.9972 13.6676C12.8189 13.6675 12.6478 13.5966 12.5218 13.4705L8.9351 9.88381C7.86291 10.7143 6.51462 11.1051 5.16452 10.9767C3.81442 10.8484 2.56392 10.2105 1.66742 9.19289C0.770922 8.17528 0.295761 6.85436 0.338602 5.49884C0.381443 4.14333 0.939068 2.85505 1.89804 1.89608C2.85701 0.937114 4.14529 0.37949 5.5008 0.336649C6.85631 0.293808 8.17723 0.768969 9.19484 1.66547C10.2125 2.56197 10.8503 3.81246 10.9787 5.16256C11.107 6.51267 10.7162 7.86095 9.88577 8.93315H9.88643ZM5.66977 9.66715C6.73063 9.66715 7.74805 9.24572 8.49819 8.49557C9.24834 7.74543 9.66977 6.72801 9.66977 5.66715C9.66977 4.60628 9.24834 3.58887 8.49819 2.83872C7.74805 2.08857 6.73063 1.66715 5.66977 1.66715C4.6089 1.66715 3.59149 2.08857 2.84134 2.83872C2.09119 3.58887 1.66977 4.60628 1.66977 5.66715C1.66977 6.72801 2.09119 7.74543 2.84134 8.49557C3.59149 9.24572 4.6089 9.66715 5.66977 9.66715Z" fill="#888888"/>
</svg>
