<svg width="4" height="13" viewBox="0 0 4 13" fill="none" xmlns="http://www.w3.org/2000/svg">
<path d="M3.53634 10.8535C3.53634 11.1976 3.39965 11.5276 3.15632 11.771C2.913 12.0143 2.58298 12.151 2.23887 12.151C1.89476 12.151 1.56475 12.0143 1.32143 11.771C1.0781 11.5276 0.941406 11.1976 0.941406 10.8535C0.941406 10.5094 1.0781 10.1794 1.32143 9.93606C1.56475 9.69274 1.89476 9.55604 2.23887 9.55604C2.58298 9.55604 2.913 9.69274 3.15632 9.93606C3.39965 10.1794 3.53634 10.5094 3.53634 10.8535ZM3.53634 6.52861C3.53634 6.87272 3.39965 7.20274 3.15632 7.44606C2.913 7.68938 2.58298 7.82608 2.23887 7.82608C1.89476 7.82608 1.56475 7.68938 1.32143 7.44606C1.0781 7.20274 0.941406 6.87272 0.941406 6.52861C0.941406 6.1845 1.0781 5.85449 1.32143 5.61116C1.56475 5.36784 1.89476 5.23114 2.23887 5.23114C2.58298 5.23114 2.913 5.36784 3.15632 5.61116C3.39965 5.85449 3.53634 6.1845 3.53634 6.52861ZM3.53634 2.20372C3.53634 2.54783 3.39965 2.87784 3.15632 3.12117C2.913 3.36449 2.58298 3.50119 2.23887 3.50119C1.89476 3.50119 1.56475 3.36449 1.32143 3.12117C1.0781 2.87784 0.941406 2.54783 0.941406 2.20372C0.941406 1.85961 1.0781 1.52959 1.32143 1.28627C1.56475 1.04295 1.89476 0.90625 2.23887 0.90625C2.58298 0.90625 2.913 1.04295 3.15632 1.28627C3.39965 1.52959 3.53634 1.85961 3.53634 2.20372Z" fill="#888888"/>
</svg>
